<?xml version="1.0" standalone="no"?>
<!DOCTYPE svg PUBLIC "-//W3C//DTD SVG 20010904//EN"
 "http://www.w3.org/TR/2001/REC-SVG-20010904/DTD/svg10.dtd">
<svg version="1.0" xmlns="http://www.w3.org/2000/svg"
 width="1280.000000pt" height="688.000000pt" viewBox="0 0 1280.000000 688.000000"
 preserveAspectRatio="xMidYMid meet">
<metadata>
Created by potrace 1.15, written by Peter Selinger 2001-2017
</metadata>
<g transform="translate(0.000000,688.000000) scale(0.100000,-0.100000)"
fill="#000000" stroke="none">
<path d="M3231 6869 c-77 -9 -106 -25 -122 -66 -6 -17 -18 -23 -51 -26 l-43
-4 47 -1 c45 -2 48 0 62 32 19 45 50 51 296 48 209 -3 230 -5 230 -28 0 -12
14 -14 68 -12 71 3 128 -19 119 -45 -2 -7 -46 -29 -98 -49 -52 -20 -102 -41
-111 -47 -24 -15 -23 -31 3 -31 28 0 61 19 54 31 -8 11 15 12 34 0 10 -7 -8
-20 -70 -51 -46 -23 -99 -54 -118 -67 -31 -24 -37 -25 -80 -15 -41 10 -47 9
-60 -8 -7 -11 -21 -20 -30 -20 -20 0 -61 -27 -61 -41 0 -5 18 -9 40 -9 57 0
43 -23 -37 -61 -49 -23 -74 -30 -99 -26 -19 3 -36 1 -40 -5 -11 -18 15 -32 69
-38 l52 -5 -33 -18 c-41 -22 -56 -23 -215 -9 -142 13 -159 18 -132 39 25 18
36 16 28 -4 -4 -11 -3 -14 5 -9 18 11 15 34 -5 45 -16 8 -13 12 17 24 31 13
38 13 65 -1 16 -8 25 -17 18 -19 -7 -2 -22 1 -33 7 -12 6 -24 10 -26 7 -8 -8
22 -27 47 -29 42 -5 27 24 -34 65 l-59 39 -37 -26 c-43 -30 -121 -37 -121 -11
0 7 -8 18 -17 24 -16 8 -15 11 10 20 16 6 33 11 40 11 28 0 -15 23 -59 31 -27
5 -54 15 -62 22 -19 20 -4 47 29 54 32 6 45 18 30 27 -5 4 -12 2 -16 -4 -3 -5
-14 -10 -24 -10 -10 0 -27 -12 -36 -27 -17 -26 -17 -27 5 -45 12 -10 41 -23
63 -29 l42 -12 -27 -9 c-34 -12 -35 -16 -3 -51 21 -22 34 -27 74 -27 33 0 56
6 74 20 56 44 70 14 22 -45 -60 -72 -55 -75 167 -95 110 -11 120 -10 164 9 53
24 54 44 3 51 -33 5 -33 6 43 39 75 33 109 66 93 91 -5 7 -19 10 -37 6 -38 -8
-27 10 12 19 16 4 34 14 39 23 8 14 14 14 51 3 41 -12 44 -11 84 17 22 16 84
51 136 77 l94 47 -28 15 -29 15 50 18 c55 19 103 48 103 61 0 5 -18 21 -40 35
-36 24 -46 26 -101 20 -40 -5 -59 -4 -55 3 14 22 -42 35 -164 38 -69 1 -141 4
-160 6 -19 2 -68 0 -109 -4z m424 -209 c-3 -5 -14 -10 -23 -10 -15 0 -15 2 -2
10 20 13 33 13 25 0z m-458 -306 c-3 -3 -12 -4 -19 -1 -8 3 -5 6 6 6 11 1 17
-2 13 -5z"/>
<path d="M4638 6869 c-16 -6 -28 -17 -28 -25 0 -19 -8 -18 -68 7 -39 16 -57
19 -79 12 -18 -6 -38 -6 -56 0 -22 7 -32 6 -47 -8 -39 -35 -18 -78 26 -54 21
11 27 10 41 -4 31 -30 10 -34 -132 -27 -75 4 -105 -5 -105 -32 0 -19 -1 -20
-25 -4 -29 19 -51 21 -58 3 -3 -9 -30 -14 -87 -15 -93 -2 -127 -15 -150 -57
-14 -24 -25 -31 -63 -37 -52 -7 -157 -52 -157 -66 0 -22 29 -32 75 -25 45 6
47 5 37 -14 -21 -38 -53 -52 -164 -73 -59 -11 -108 -36 -108 -56 0 -21 42 -34
116 -34 76 0 85 -15 14 -25 -28 -4 -60 -15 -73 -25 l-22 -19 33 -7 c17 -3 32
-13 32 -20 0 -26 48 -35 129 -25 42 6 112 12 156 14 l80 5 29 -42 c78 -109
108 -160 113 -194 8 -49 21 -66 39 -51 8 6 14 18 14 25 0 24 18 15 24 -12 7
-28 -7 -54 -30 -54 -20 0 -28 -21 -13 -31 8 -5 24 -9 35 -9 12 0 32 -8 44 -18
l21 -17 -20 -27 c-25 -32 -26 -44 -5 -56 14 -8 12 -10 -9 -16 -31 -7 -49 -36
-37 -56 7 -11 11 -12 24 0 35 28 26 -13 -12 -61 -17 -22 -6 -66 19 -72 10 -3
19 -13 19 -22 0 -29 32 -78 88 -137 44 -46 61 -58 86 -58 23 0 34 -6 41 -22
12 -28 38 -25 83 8 22 17 32 33 32 52 0 109 85 226 176 243 56 11 114 59 114
96 0 14 6 23 16 23 9 0 30 10 47 22 24 17 51 23 126 29 71 5 117 15 176 38 56
22 69 30 42 26 -21 -3 -57 -14 -81 -25 -26 -11 -83 -21 -137 -25 -72 -5 -102
-12 -129 -29 -19 -12 -42 -25 -51 -28 -9 -4 -19 -20 -22 -37 -7 -35 -56 -71
-97 -71 -75 0 -190 -140 -190 -231 0 -39 -18 -66 -61 -93 -25 -16 -27 -16 -32
4 -5 20 -11 24 -62 35 -63 14 -162 149 -149 201 6 25 5 26 -20 20 -17 -4 -25
-3 -22 3 4 5 2 13 -4 16 -8 5 -8 11 0 20 7 8 20 31 31 52 21 42 13 61 -20 44
-12 -7 -21 -8 -21 -3 0 5 14 15 30 22 34 14 36 17 15 40 -14 15 -13 20 7 45
27 35 16 55 -41 74 -40 13 -41 14 -20 25 35 18 45 41 30 70 -20 36 -40 40 -53
11 -17 -38 -28 -30 -28 18 0 31 -6 49 -20 62 -11 10 -22 27 -26 39 -4 11 -21
37 -38 57 -17 19 -40 48 -51 64 l-21 28 -167 -12 -167 -13 -30 30 -30 31 44 6
c25 4 53 13 63 20 30 22 3 36 -81 42 -42 3 -79 10 -82 15 -7 10 57 38 87 38
21 0 59 10 123 33 15 6 37 24 47 41 31 51 26 57 -38 50 -43 -6 -54 -4 -48 5
10 18 82 47 135 55 49 8 82 30 73 52 -3 8 5 18 22 24 34 13 55 12 32 -1 -23
-13 -13 -29 19 -29 15 0 24 6 24 15 0 8 -4 15 -10 15 -5 0 -10 5 -10 10 0 6
32 10 76 10 61 0 79 4 89 17 13 17 14 17 32 0 25 -22 43 -22 43 2 0 28 22 32
134 25 83 -5 104 -4 114 8 10 12 8 20 -9 42 -23 30 -41 33 -59 11 -9 -11 -16
-13 -23 -6 -7 7 -6 15 1 24 16 19 145 19 189 1 46 -20 70 -17 76 7 5 20 11 21
121 18 64 -2 116 -1 116 3 0 5 -15 8 -32 8 -18 0 -62 2 -98 5 -36 3 -77 0 -92
-6z m-671 -195 c-3 -3 -12 -4 -19 -1 -8 3 -5 6 6 6 11 1 17 -2 13 -5z"/>
<path d="M4880 6850 c0 -5 -11 -10 -24 -10 -13 0 -34 -9 -47 -19 -37 -30 -9
-34 116 -16 135 19 244 20 227 3 -23 -23 -11 -28 66 -28 105 -1 75 -18 -67
-37 -133 -18 -311 -84 -311 -114 0 -16 47 -10 102 12 90 36 150 49 235 49 67
0 81 -3 77 -14 -8 -21 11 -28 43 -15 15 6 60 13 98 15 39 2 101 6 139 10 83 7
105 -6 46 -30 -22 -9 -46 -16 -52 -16 -6 0 -20 -8 -31 -17 -10 -10 -47 -22
-80 -28 -46 -7 -63 -14 -65 -27 -3 -14 3 -18 27 -18 l30 0 -21 -35 c-11 -20
-34 -43 -50 -51 -22 -12 -27 -19 -19 -27 6 -6 11 -20 11 -32 0 -27 18 -45 46
-45 13 0 26 -4 29 -10 4 -6 -16 -10 -53 -10 -40 0 -64 -5 -72 -15 -10 -12 -8
-16 15 -25 14 -5 34 -10 43 -11 9 0 2 -5 -16 -10 -39 -12 -37 -30 4 -42 16 -5
37 -20 47 -33 l18 -24 -34 0 c-48 0 -62 -18 -35 -47 30 -32 8 -29 -55 7 -64
36 -85 38 -96 7 -8 -19 -15 -23 -44 -19 -45 5 -54 -11 -21 -37 21 -16 23 -23
15 -40 -14 -25 0 -35 39 -26 55 12 143 -56 111 -88 -12 -12 -41 8 -41 29 0 16
-34 27 -60 19 -11 -3 -20 -13 -20 -20 0 -8 -10 -24 -22 -35 -31 -29 -12 -40
69 -40 34 0 70 -3 80 -6 15 -6 16 -5 5 7 -9 9 -36 14 -82 14 -72 0 -81 4 -55
25 8 7 15 19 15 26 0 25 47 16 69 -13 16 -23 23 -26 38 -17 26 16 28 43 4 75
l-21 28 23 3 c35 5 34 37 -2 44 -17 4 -31 12 -31 20 0 7 -12 14 -27 16 -17 2
-28 9 -28 18 0 26 41 22 91 -9 26 -17 54 -31 60 -31 25 0 25 20 0 45 -25 25
-25 25 -3 25 36 0 67 11 67 24 -1 20 -39 57 -67 66 -29 8 -28 8 25 26 16 5 16
6 -2 20 -11 8 -30 14 -44 14 -13 0 -20 4 -17 10 3 6 33 10 66 10 32 0 59 4 59
9 0 13 -22 29 -53 36 -30 8 -35 20 -12 29 22 8 18 23 -7 30 -22 6 -22 6 9 25
17 11 34 29 37 39 4 11 13 23 21 26 8 3 15 12 15 21 0 11 -11 15 -37 15 -50 1
-25 15 42 25 29 4 58 15 68 26 10 10 28 19 40 19 30 0 89 38 84 53 -5 17 -109
21 -180 7 -63 -12 -85 -7 -66 16 8 10 9 18 2 25 -7 7 -15 2 -26 -14 -8 -13
-29 -30 -47 -37 -27 -11 -32 -11 -45 6 -12 16 -26 19 -107 18 -81 -1 -105 -6
-187 -38 -98 -38 -151 -44 -69 -8 79 35 177 62 257 71 151 17 210 69 70 62
-73 -3 -74 -3 -56 16 9 11 14 23 10 26 -12 12 -139 7 -220 -8 -43 -8 -94 -15
-113 -14 l-35 1 44 12 c43 11 68 36 37 36 -9 0 -16 -4 -16 -10z m359 -771 c13
-11 31 -19 40 -20 37 -2 -39 -17 -93 -18 -50 -1 -57 1 -52 16 4 10 -2 25 -14
38 l-21 22 58 -10 c32 -5 69 -18 82 -28z"/>
<path d="M5170 6080 c0 -4 14 -13 30 -19 17 -5 30 -6 30 -1 0 4 -13 13 -30 19
-16 5 -30 6 -30 1z"/>
<path d="M4264 6829 c-10 -17 13 -36 27 -22 12 12 4 33 -11 33 -5 0 -12 -5
-16 -11z"/>
<path d="M4202 6809 c2 -6 8 -10 13 -10 5 0 11 4 13 10 2 6 -4 11 -13 11 -9 0
-15 -5 -13 -11z"/>
<path d="M2988 6760 c-1 -5 -44 -16 -95 -24 -50 -7 -96 -17 -102 -21 -17 -10
-3 -25 24 -25 13 0 40 -15 61 -36 33 -30 43 -35 71 -29 35 6 183 -24 183 -37
0 -5 -28 -6 -63 -2 -52 5 -65 3 -77 -11 -10 -12 -11 -21 -3 -33 14 -23 97 -64
128 -64 14 0 25 -4 25 -9 0 -13 -91 -11 -128 2 -16 5 -33 18 -36 27 -24 63
-47 87 -117 119 -73 34 -103 40 -113 24 -4 -5 2 -7 12 -4 10 2 47 -10 82 -26
36 -17 71 -31 78 -31 6 0 12 -11 12 -23 0 -13 9 -32 20 -42 11 -10 20 -24 20
-30 0 -32 161 -55 180 -25 13 20 3 30 -31 30 -33 0 -98 30 -119 55 -21 26 5
36 71 29 44 -5 72 -1 124 16 79 26 124 60 104 77 -11 8 -32 4 -84 -18 -80 -32
-137 -36 -195 -13 -33 13 -46 14 -67 5 -27 -13 -36 -8 -80 36 -12 13 -32 24
-45 24 -24 1 -11 5 102 28 53 11 79 25 68 36 -3 4 -8 1 -10 -5z m299 -116
c-11 -11 -107 -43 -107 -36 0 12 105 61 109 50 1 -5 1 -11 -2 -14z"/>
<path d="M5424 6729 c-10 -17 13 -36 27 -22 12 12 4 33 -11 33 -5 0 -12 -5
-16 -11z"/>
<path d="M8150 6705 c0 -9 -9 -15 -25 -15 -30 0 -34 -25 -5 -40 25 -13 26 -2
3 17 -17 13 -16 14 4 8 15 -4 25 0 32 14 14 25 14 31 1 31 -5 0 -10 -7 -10
-15z"/>
<path d="M8275 6700 c-8 -14 3 -30 21 -30 8 0 14 9 14 20 0 21 -24 28 -35 10z"/>
<path d="M7867 6684 c-8 -8 1 -24 14 -24 5 0 9 7 9 15 0 15 -12 20 -23 9z"/>
<path d="M7956 6673 c-11 -11 -6 -23 9 -23 8 0 23 -5 33 -11 19 -12 72 3 72
21 0 16 -24 22 -51 11 -15 -5 -32 -5 -41 0 -8 5 -18 6 -22 2z m94 -13 c0 -5
-10 -10 -22 -9 -22 0 -22 1 -3 9 11 5 21 9 23 9 1 1 2 -3 2 -9z"/>
<path d="M8187 6674 c-8 -8 1 -24 14 -24 5 0 9 7 9 15 0 15 -12 20 -23 9z"/>
<path d="M9256 6671 c-9 -15 23 -36 36 -23 5 5 7 15 4 21 -9 13 -33 14 -40 2z"/>
<path d="M9382 6650 c-22 -16 -44 -35 -49 -43 -4 -8 -19 -20 -32 -27 l-24 -12
25 -25 25 -25 39 20 c80 40 118 38 135 -6 l10 -26 23 29 c28 35 46 26 46 -23
0 -64 -8 -67 -93 -39 -42 14 -93 28 -114 32 -21 3 14 -13 77 -34 134 -47 143
-44 138 44 -2 40 -7 51 -22 53 -12 3 -27 -5 -37 -19 l-19 -24 -1 25 c-1 14 0
37 1 52 1 20 -7 32 -37 52 -21 14 -40 26 -44 26 -3 0 -24 -13 -47 -30z m95
-14 c34 -30 24 -45 -35 -53 -89 -12 -121 21 -54 56 48 26 55 26 89 -3z m-107
-75 c0 -16 -20 -23 -46 -17 -36 9 -29 26 11 26 19 0 35 -4 35 -9z"/>
<path d="M7707 6634 c-32 -17 -31 -30 4 -55 37 -27 79 -35 79 -15 0 9 -8 16
-20 16 -24 0 -26 25 -4 38 20 11 10 32 -14 32 -9 -1 -30 -8 -45 -16z m45 -6
c-5 -7 -12 -23 -14 -35 -3 -22 -3 -22 -28 -3 l-25 19 35 15 c43 19 45 19 32 4z"/>
<path d="M7819 6631 c-23 -18 -23 -20 -6 -38 9 -11 17 -24 17 -30 0 -5 11 -15
25 -21 33 -15 35 -15 35 3 0 8 -9 15 -20 15 -32 0 -23 19 13 28 27 7 33 5 39
-10 8 -20 25 -23 48 -8 9 5 19 5 27 -1 13 -11 53 4 53 21 0 17 -21 22 -37 9
-13 -11 -17 -10 -28 5 -9 11 -29 18 -60 20 -26 2 -52 9 -58 15 -15 15 -21 14
-48 -8z m51 -11 c13 -9 13 -11 0 -20 -25 -17 -50 -12 -50 10 0 22 25 27 50 10z
m100 -20 c0 -4 -6 -13 -13 -19 -11 -8 -16 -6 -25 13 -9 21 -8 22 14 18 13 -2
24 -8 24 -12z m70 -14 c0 -2 -7 -6 -15 -10 -8 -3 -15 -1 -15 4 0 6 7 10 15 10
8 0 15 -2 15 -4z"/>
<path d="M8211 6629 c-26 -16 -30 -23 -21 -34 14 -17 34 -10 54 20 21 32 7 38
-33 14z m19 -14 c-7 -8 -17 -15 -22 -15 -6 0 -5 7 2 15 7 8 17 15 22 15 6 0 5
-7 -2 -15z"/>
<path d="M8313 6638 c-13 -6 -23 -17 -23 -25 0 -15 16 -17 25 -3 3 6 17 10 31
10 15 0 24 6 24 15 0 17 -25 18 -57 3z"/>
<path d="M8070 6621 c0 -20 20 -61 30 -61 10 0 45 48 39 54 -11 10 -69 16 -69
7z m50 -21 c0 -4 -8 -14 -17 -21 -10 -7 -15 -10 -11 -5 4 5 3 17 -2 26 -8 15
-6 17 10 13 11 -3 20 -9 20 -13z"/>
<path d="M6847 6581 c-5 -21 -7 -22 -36 -7 -16 9 -46 16 -66 16 -35 0 -36 0
-30 -34 9 -45 -5 -51 -45 -21 -42 31 -48 31 -82 -2 -15 -14 -31 -23 -35 -20
-3 4 2 14 13 21 10 8 15 18 11 22 -11 11 -66 8 -99 -5 -32 -12 -38 -41 -8 -41
11 0 20 -4 20 -10 0 -13 -32 -28 -47 -23 -18 6 -16 -8 3 -36 11 -15 23 -21 37
-17 11 3 29 1 39 -5 14 -7 27 -4 55 16 50 33 78 33 35 -1 -18 -14 -30 -29 -27
-34 7 -11 45 -20 45 -10 0 5 -10 10 -22 12 -21 3 -21 5 10 21 17 10 32 24 32
32 0 22 -43 19 -73 -5 -30 -24 -50 -25 -68 -4 -11 14 -13 14 -22 -1 -7 -13
-12 -14 -23 -4 -12 9 -10 14 11 31 31 24 32 45 3 51 -22 3 -22 4 5 15 16 7 40
12 54 12 25 0 25 -1 10 -18 -10 -10 -14 -22 -10 -25 12 -13 40 -7 58 13 23 26
46 25 79 -1 l28 -22 20 20 c16 17 18 24 9 42 -10 18 -9 21 7 21 36 0 82 -22
82 -38 1 -14 4 -13 20 6 10 12 20 27 22 33 3 9 24 8 76 -1 40 -7 72 -16 72
-19 0 -3 -23 -19 -50 -34 -50 -28 -51 -28 -124 -16 -40 7 -80 9 -89 6 -21 -8
-22 -27 -3 -27 8 0 22 -10 30 -22 9 -12 28 -27 43 -34 18 -8 22 -13 11 -13 -9
-1 -29 4 -42 11 -33 14 -53 -3 -93 -78 -27 -52 -45 -65 -58 -43 -4 5 -19 15
-33 21 l-27 10 24 9 c13 5 22 12 19 15 -8 7 -58 -7 -58 -16 0 -5 21 -23 46
-40 55 -37 58 -35 109 56 20 35 42 64 49 64 15 0 40 -27 49 -52 4 -13 17 -18
41 -18 87 0 88 31 1 71 -36 17 -65 37 -65 43 0 7 -10 18 -22 25 -20 10 -18 11
17 6 136 -19 136 -19 204 21 l64 39 -44 13 c-24 7 -69 16 -100 19 -52 5 -56 4
-62 -16z m35 -177 c27 -14 29 -18 14 -26 -9 -5 -29 -8 -45 -6 -25 3 -27 6 -20
26 10 26 11 27 51 6z"/>
<path d="M7185 6570 c-4 -7 -3 -16 3 -22 14 -14 47 -6 47 12 0 18 -40 26 -50
10z m35 -10 c0 -5 -2 -10 -4 -10 -3 0 -8 5 -11 10 -3 6 -1 10 4 10 6 0 11 -4
11 -10z"/>
<path d="M7366 6573 c-11 -11 -6 -23 9 -23 8 0 15 4 15 9 0 13 -16 22 -24 14z"/>
<path d="M8157 6574 c-8 -8 1 -24 14 -24 5 0 9 7 9 15 0 15 -12 20 -23 9z"/>
<path d="M2510 6545 c0 -16 27 -32 37 -21 7 7 -16 36 -28 36 -5 0 -9 -7 -9
-15z"/>
<path d="M2312 6518 c-17 -21 30 -68 67 -68 35 0 48 -15 31 -35 -10 -12 -9
-15 3 -15 8 0 17 5 19 12 3 8 14 5 35 -10 37 -26 63 -28 63 -5 0 67 -180 167
-218 121z m113 -27 c53 -23 119 -101 87 -101 -4 0 -29 16 -56 35 -27 19 -61
35 -75 35 -16 1 -33 10 -44 25 l-18 25 33 0 c18 0 51 -9 73 -19z"/>
<path d="M5450 6515 c0 -9 5 -15 11 -13 6 2 11 8 11 13 0 5 -5 11 -11 13 -6 2
-11 -4 -11 -13z"/>
<path d="M9634 6476 c-24 -26 -44 -55 -44 -66 0 -24 -7 -24 93 1 114 29 132
51 69 83 -63 32 -71 31 -118 -18z m106 9 c33 -17 40 -45 12 -45 -10 0 -44 -7
-77 -15 -32 -9 -63 -14 -68 -12 -16 5 63 87 85 87 10 0 32 -7 48 -15z"/>
<path d="M7056 6481 c-3 -5 0 -14 8 -20 10 -8 16 -8 25 2 6 8 8 17 4 20 -9 10
-31 9 -37 -2z"/>
<path d="M6985 6470 c-4 -6 -3 -16 3 -22 6 -6 12 -6 17 2 4 6 3 16 -3 22 -6 6
-12 6 -17 -2z"/>
<path d="M2045 6440 c-4 -6 -1 -17 5 -25 19 -23 -15 -31 -45 -11 -15 10 -26
12 -30 5 -11 -17 3 -39 26 -39 13 0 31 -8 41 -17 18 -16 21 -16 53 1 18 10 46
32 62 48 23 24 25 30 13 38 -20 13 -117 13 -125 0z m115 -14 c0 -18 -89 -76
-106 -69 -20 8 -7 23 40 44 l41 19 -38 0 c-23 0 -36 4 -32 10 10 16 95 13 95
-4z m-160 -37 c0 -5 -4 -9 -10 -9 -5 0 -10 7 -10 16 0 8 5 12 10 9 6 -3 10
-10 10 -16z"/>
<path d="M2584 6439 c-3 -6 5 -23 19 -37 26 -25 27 -25 47 -7 17 15 18 21 8
31 -19 17 -66 26 -74 13z m64 -26 c6 -19 -33 -16 -49 3 -11 14 -9 15 16 12 16
-1 30 -9 33 -15z"/>
<path d="M9360 6436 c0 -9 7 -16 16 -16 9 0 14 5 12 12 -6 18 -28 21 -28 4z"/>
<path d="M9826 6443 c-11 -11 -6 -23 9 -23 8 0 15 4 15 9 0 13 -16 22 -24 14z"/>
<path d="M5420 6406 c0 -9 7 -16 16 -16 9 0 14 5 12 12 -6 18 -28 21 -28 4z"/>
<path d="M9317 6413 c-12 -11 -8 -23 8 -23 8 0 15 7 15 15 0 16 -12 20 -23 8z"/>
<path d="M9681 6366 c-26 -26 -32 -40 -28 -59 6 -21 4 -23 -24 -19 -16 2 -50
-3 -75 -13 -30 -11 -59 -15 -84 -11 -21 3 -60 1 -87 -4 -26 -6 -89 -17 -139
-24 -50 -7 -103 -21 -118 -31 -35 -23 -28 -29 12 -10 40 21 206 48 307 50 44
1 93 7 108 14 16 6 48 11 72 11 47 0 59 8 45 30 -10 17 13 61 42 79 12 7 32
10 50 6 28 -7 29 -8 12 -26 -20 -23 -21 -21 37 -43 39 -15 57 -16 110 -8 50 8
70 7 91 -4 15 -8 34 -14 43 -14 11 0 13 -4 8 -12 -4 -7 -8 -24 -8 -38 0 -21
-7 -27 -45 -38 -25 -7 -56 -20 -70 -28 -14 -8 -49 -28 -77 -45 -64 -37 -69
-59 -15 -59 38 0 132 27 132 38 0 3 -7 14 -17 24 -15 17 -15 18 9 18 13 0 33
-7 44 -15 22 -16 34 -19 34 -7 0 12 -46 32 -71 32 -11 0 -17 5 -14 10 3 6 23
10 44 10 35 0 40 -3 56 -41 15 -33 22 -39 39 -34 12 4 46 9 76 12 46 4 59 1
79 -16 19 -17 37 -21 85 -21 34 1 72 7 86 15 31 18 151 20 168 3 18 -18 14
-38 -8 -38 -31 0 -24 -22 23 -67 55 -54 95 -75 119 -62 10 5 18 16 18 24 0 21
17 27 41 15 15 -9 28 -9 49 0 22 9 36 9 63 0 23 -9 46 -10 73 -4 34 9 40 14
49 48 l9 39 90 -6 c51 -3 92 -11 96 -18 6 -8 9 -8 15 1 13 21 -9 29 -95 32
-83 3 -84 3 -41 13 25 6 46 15 48 21 2 6 -18 28 -44 48 -42 33 -48 35 -54 19
-13 -36 -31 -109 -36 -145 -4 -33 -8 -36 -41 -41 -21 -2 -48 0 -62 5 -14 5
-44 7 -67 3 -24 -3 -51 -1 -63 5 -18 9 -23 7 -38 -19 -9 -17 -25 -31 -35 -31
-17 0 -117 85 -117 100 0 4 9 10 20 13 25 6 25 18 1 48 -17 21 -28 24 -94 24
-47 0 -80 -5 -90 -13 -9 -8 -43 -16 -76 -19 -54 -5 -60 -4 -71 17 -11 21 -17
22 -102 18 l-90 -3 -18 37 c-12 26 -14 40 -7 47 17 17 18 91 1 91 -7 0 -29 7
-48 16 -27 14 -45 15 -92 7 -45 -7 -70 -5 -102 5 -41 14 -42 15 -26 33 16 18
15 19 -10 29 -46 17 -71 11 -105 -24z m248 -263 c-15 -7 -47 -15 -71 -19 l-43
-6 25 21 c14 11 30 21 36 21 7 0 22 8 35 19 23 18 23 18 34 -3 10 -18 8 -23
-16 -33z m1186 14 c24 -13 27 -17 13 -22 -50 -20 -90 10 -73 53 6 15 8 16 18
1 7 -9 26 -23 42 -32z"/>
<path d="M2307 6383 c-12 -11 -8 -23 8 -23 8 0 15 7 15 15 0 16 -12 20 -23 8z"/>
<path d="M9246 6383 c-11 -11 -6 -23 9 -23 8 0 15 4 15 9 0 13 -16 22 -24 14z"/>
<path d="M1885 6365 c-16 -8 -42 -16 -56 -19 -31 -7 -124 -86 -112 -96 4 -4
25 -10 46 -13 33 -5 40 -2 64 28 21 26 33 33 49 29 16 -4 27 2 44 26 12 17 19
37 16 45 -6 18 -12 18 -51 0z m35 -19 c0 -20 -30 -41 -54 -38 -14 2 -29 -7
-43 -27 -18 -23 -30 -29 -60 -29 l-38 0 44 39 c28 25 58 41 83 45 21 4 41 11
44 15 8 14 24 11 24 -5z"/>
<path d="M2680 6357 c0 -7 -13 -18 -30 -24 -31 -11 -40 -36 -18 -49 6 -4 37
-13 67 -19 50 -10 56 -14 63 -42 7 -29 13 -33 66 -43 31 -6 71 -16 89 -21 30
-9 165 -6 269 7 36 4 43 9 46 32 3 15 7 34 9 42 3 10 -2 14 -16 11 -11 -2 -81
-8 -155 -14 -144 -11 -202 -6 -223 19 -38 47 -49 54 -84 54 -21 0 -45 5 -53
10 -13 9 -13 12 2 24 10 7 15 16 11 19 -11 12 -43 7 -43 -6z m48 -54 c71 -14
85 -20 93 -40 5 -13 21 -28 36 -34 31 -12 327 -8 355 5 15 7 16 4 6 -22 -10
-27 -17 -30 -71 -36 -89 -9 -216 -7 -251 4 -17 5 -48 12 -69 15 -32 5 -41 12
-53 40 -10 25 -21 35 -46 40 -57 11 -98 26 -98 36 0 12 1 12 98 -8z"/>
<path d="M2842 6359 c2 -6 8 -10 13 -10 5 0 11 4 13 10 2 6 -4 11 -13 11 -9 0
-15 -5 -13 -11z"/>
<path d="M9462 6359 c2 -6 8 -10 13 -10 5 0 11 4 13 10 2 6 -4 11 -13 11 -9 0
-15 -5 -13 -11z"/>
<path d="M9200 6345 c0 -9 5 -15 11 -13 6 2 11 8 11 13 0 5 -5 11 -11 13 -6 2
-11 -4 -11 -13z"/>
<path d="M9850 6346 c0 -9 7 -16 16 -16 9 0 14 5 12 12 -6 18 -28 21 -28 4z"/>
<path d="M2005 6340 c-4 -6 -3 -16 3 -22 6 -6 12 -6 17 2 4 6 3 16 -3 22 -6 6
-12 6 -17 -2z"/>
<path d="M3495 6340 c-4 -6 -3 -16 3 -22 6 -6 12 -6 17 2 4 6 3 16 -3 22 -6 6
-12 6 -17 -2z"/>
<path d="M6957 6324 c-8 -8 1 -24 14 -24 5 0 9 7 9 15 0 15 -12 20 -23 9z"/>
<path d="M8407 6309 c-26 -10 -82 -23 -125 -29 -42 -5 -117 -20 -166 -33 -83
-22 -89 -25 -90 -50 -1 -14 -14 -39 -29 -55 -15 -15 -27 -33 -27 -40 0 -7 -5
-12 -10 -12 -11 0 -50 -58 -50 -75 0 -5 11 7 25 28 22 31 31 37 63 38 32 0 34
1 15 9 -29 12 -29 16 7 57 21 23 29 41 25 54 -5 15 -1 19 18 19 13 0 61 11
107 25 46 14 102 25 125 25 23 0 68 9 101 20 32 12 68 19 79 17 32 -6 -55 -42
-182 -75 -125 -33 -163 -56 -232 -145 -47 -62 -51 -88 -16 -122 l24 -25 -49 0
c-37 0 -50 4 -50 14 0 16 -26 46 -41 46 -5 0 -9 -4 -9 -10 0 -5 6 -10 14 -10
21 0 27 -27 8 -36 -14 -6 -13 -8 8 -14 14 -5 43 -8 65 -9 72 -1 111 19 65 34
-11 4 -27 17 -36 30 -14 21 -14 27 2 57 9 18 43 58 74 89 43 42 69 59 106 68
105 27 240 71 259 84 16 13 17 17 6 31 -17 20 -25 20 -84 -5z"/>
<path d="M11330 6315 c0 -9 5 -15 11 -13 6 2 11 8 11 13 0 5 -5 11 -11 13 -6
2 -11 -4 -11 -13z"/>
<path d="M2181 6301 c-6 -11 -11 -29 -11 -40 0 -27 -33 -28 -91 -1 -26 11 -66
20 -96 20 l-53 0 0 -34 c0 -45 18 -59 57 -44 17 6 38 8 49 3 17 -7 17 -8 -6
-14 -14 -4 -25 -13 -25 -21 0 -23 59 -24 133 -2 37 11 83 23 103 26 45 8 81
42 59 56 -8 6 -23 10 -32 10 -9 0 -25 10 -35 23 -28 35 -41 40 -52 18z m44
-31 c11 -21 23 -30 40 -30 34 0 32 -18 -2 -26 -16 -3 -60 -14 -99 -25 -38 -10
-85 -19 -104 -19 -31 0 -32 1 -15 13 10 8 15 19 12 24 -10 16 -60 23 -74 11
-20 -16 -43 -1 -43 27 0 22 4 25 35 25 19 0 64 -11 101 -25 36 -14 70 -25 74
-25 17 0 40 32 40 56 0 33 16 30 35 -6z"/>
<path d="M2439 6301 l-23 -18 40 -41 c46 -48 76 -59 98 -37 24 24 19 53 -13
86 -34 33 -69 37 -102 10z m99 -26 c25 -31 18 -65 -12 -65 -26 0 -91 63 -82
79 14 22 73 13 94 -14z"/>
<path d="M2465 6281 c-7 -13 24 -43 36 -35 6 4 3 14 -7 25 -20 22 -21 22 -29
10z"/>
<path d="M9496 6313 c-11 -11 -6 -23 9 -23 8 0 15 4 15 9 0 13 -16 22 -24 14z"/>
<path d="M2362 6288 c6 -18 28 -21 28 -4 0 9 -7 16 -16 16 -9 0 -14 -5 -12
-12z"/>
<path d="M11442 6288 c6 -18 28 -21 28 -4 0 9 -7 16 -16 16 -9 0 -14 -5 -12
-12z"/>
<path d="M10947 6272 c-45 -50 13 -114 72 -82 12 6 30 6 50 0 18 -5 39 -6 47
-3 13 5 13 8 -1 29 -18 28 -13 30 21 8 20 -14 30 -15 49 -6 64 29 -17 73 -95
52 -33 -9 -47 -8 -72 4 -40 20 -51 20 -71 -2z m78 -16 c21 -9 37 -11 40 -5 10
15 31 10 31 -8 1 -10 4 -26 9 -35 6 -16 4 -17 -25 -6 -25 8 -41 8 -65 -1 -52
-19 -87 8 -65 50 13 23 29 24 75 5z m170 -10 c0 -5 -10 -12 -22 -17 -15 -6
-26 -2 -39 12 -18 20 -18 20 21 17 22 -2 40 -7 40 -12z"/>
<path d="M10860 6250 c0 -15 5 -20 18 -18 9 2 17 10 17 18 0 8 -8 16 -17 18
-13 2 -18 -3 -18 -18z"/>
<path d="M1846 6253 c-11 -11 -6 -23 9 -23 8 0 15 4 15 9 0 13 -16 22 -24 14z"/>
<path d="M2390 6245 c0 -8 9 -19 20 -25 15 -8 20 -8 20 3 0 14 -19 37 -32 37
-4 0 -8 -7 -8 -15z"/>
<path d="M2597 6253 c-12 -11 -8 -23 8 -23 8 0 15 7 15 15 0 16 -12 20 -23 8z"/>
<path d="M2648 6230 c-22 -18 -23 -18 -4 -39 22 -24 58 -27 75 -7 15 18 5 41
-24 54 -19 9 -28 8 -47 -8z m51 -9 c17 -11 7 -41 -12 -41 -19 0 -40 26 -32 40
8 12 25 13 44 1z"/>
<path d="M11268 6242 c-24 -5 -23 -19 2 -32 25 -13 96 -9 93 5 -2 13 -72 33
-95 27z m67 -22 c17 -7 16 -9 -10 -9 -16 0 -37 4 -45 9 -12 8 -10 10 10 9 14
0 34 -4 45 -9z"/>
<path d="M5402 6229 c2 -6 8 -10 13 -10 5 0 11 4 13 10 2 6 -4 11 -13 11 -9 0
-15 -5 -13 -11z"/>
<path d="M2337 6223 c-12 -11 -8 -23 8 -23 8 0 15 7 15 15 0 16 -12 20 -23 8z"/>
<path d="M8957 6223 c-12 -11 -8 -23 8 -23 8 0 15 7 15 15 0 16 -12 20 -23 8z"/>
<path d="M5450 6200 c0 -5 7 -10 16 -10 8 0 12 5 9 10 -3 6 -10 10 -16 10 -5
0 -9 -4 -9 -10z"/>
<path d="M6735 6191 c-7 -12 12 -24 25 -16 11 7 4 25 -10 25 -5 0 -11 -4 -15
-9z"/>
<path d="M1704 6156 c-14 -10 -24 -31 -28 -60 -6 -36 -12 -45 -31 -50 -14 -4
-25 -10 -25 -14 0 -10 87 -72 101 -72 20 0 108 50 122 70 17 24 27 16 27 -21
0 -15 8 -37 19 -50 17 -21 26 -23 89 -21 94 4 101 -14 9 -23 -40 -3 -79 -10
-86 -14 -8 -5 17 -23 73 -51 90 -44 106 -46 206 -23 25 6 25 6 6 -15 -17 -19
-17 -22 -2 -37 9 -9 16 -32 16 -51 0 -38 -17 -47 -22 -11 -5 35 -61 57 -145
57 -40 0 -73 3 -73 7 0 3 7 14 15 23 14 16 13 19 -10 34 -19 13 -37 16 -64 11
-27 -4 -50 0 -86 16 -35 16 -74 23 -130 25 -44 1 -93 7 -108 13 -42 16 -47 15
-116 -30 -63 -41 -88 -48 -51 -14 22 20 27 45 8 45 -7 0 -36 -11 -64 -24 -34
-16 -56 -21 -67 -15 -24 14 -28 -3 -11 -51 8 -23 13 -50 11 -59 -4 -18 -5 -16
-23 43 -10 33 -30 42 -184 83 -98 27 -271 55 -350 57 -25 0 -51 5 -59 10 -42
27 -175 39 -213 20 -15 -8 -31 -15 -35 -16 -25 -4 -130 -58 -142 -72 -8 -9
-36 -26 -62 -37 -27 -12 -53 -26 -58 -33 -13 -15 78 -90 137 -112 23 -9 42
-20 42 -25 0 -17 -40 -19 -76 -4 -36 14 -43 14 -89 -4 -27 -10 -51 -25 -53
-32 -1 -8 14 -31 33 -52 35 -38 36 -39 98 -35 34 2 70 8 80 12 12 6 17 4 17
-8 0 -25 -35 -54 -79 -66 -47 -12 -81 -51 -81 -93 0 -35 66 -107 98 -107 11 0
25 -7 32 -14 17 -22 107 -49 135 -42 30 8 32 -7 7 -48 -10 -17 -51 -48 -101
-75 -80 -45 -99 -67 -56 -65 11 1 27 4 36 8 12 5 18 1 22 -13 5 -22 31 -28 42
-10 4 6 -1 16 -11 23 -16 12 -10 18 57 56 80 47 174 130 185 162 8 28 53 91
70 101 19 11 18 -7 -1 -23 -18 -15 -20 -59 -2 -66 7 -2 31 2 54 10 23 8 51 12
62 9 13 -3 21 -1 21 7 0 6 -9 14 -21 17 -12 4 -18 11 -15 20 3 8 6 17 6 19 0
2 9 4 20 4 11 0 20 -5 20 -11 0 -15 61 -38 159 -59 47 -11 115 -31 150 -45 35
-15 73 -24 83 -22 14 4 25 -4 39 -26 26 -43 25 -70 -1 -62 -36 11 -44 -7 -10
-21 40 -17 37 -18 43 7 6 21 6 21 40 -5 19 -14 39 -26 45 -26 18 0 14 -31 -5
-47 -16 -12 -15 -13 11 -7 32 8 32 8 10 -93 -4 -21 -3 -33 4 -33 6 0 12 8 14
19 2 15 7 17 26 10 22 -8 22 -10 8 -31 -24 -33 -20 -40 19 -32 35 6 36 6 29
-22 -4 -16 -11 -34 -16 -41 -17 -21 0 -47 57 -86 55 -38 112 -54 108 -29 -4
19 15 14 27 -7 18 -34 12 -50 -17 -48 -27 2 -28 0 -34 -58 -4 -33 -7 -114 -8
-180 -1 -130 15 -190 58 -217 12 -7 21 -22 21 -34 0 -31 77 -142 111 -160 16
-8 29 -10 29 -5 0 5 -9 12 -20 16 -27 9 -80 78 -97 128 -8 23 -25 51 -39 62
-40 33 -55 117 -48 269 7 170 9 179 34 166 15 -8 21 -6 30 11 10 17 7 27 -14
59 -31 47 -105 109 -143 119 -24 7 -28 12 -25 39 3 32 -5 38 -48 32 -12 -1
-13 1 -2 11 19 20 14 38 -12 50 -20 10 -24 18 -24 53 1 57 -13 80 -77 121 -30
19 -55 40 -55 46 0 22 -42 70 -59 66 -9 -2 -50 9 -93 24 -42 15 -111 35 -153
44 -78 16 -126 35 -157 63 -16 13 -20 13 -43 -2 -14 -9 -25 -26 -25 -37 0 -13
-11 -25 -32 -34 -45 -19 -58 -3 -29 36 16 22 20 34 12 42 -15 15 -59 -7 -71
-35 -27 -63 -73 -126 -119 -163 -55 -44 -238 -142 -247 -132 -3 3 25 21 63 41
77 38 133 94 133 131 0 23 -4 25 -45 25 -44 0 -116 28 -130 50 -3 5 -17 10
-31 10 -29 0 -69 39 -79 77 -9 36 19 71 68 88 49 17 87 52 87 81 0 31 -16 38
-42 20 -40 -28 -148 -15 -148 18 0 9 -10 21 -22 27 -21 11 -21 12 17 31 23 12
48 18 64 14 81 -17 92 -18 106 -6 26 21 17 34 -43 62 -50 24 -130 85 -120 92
1 1 23 11 48 21 25 11 60 32 78 47 18 15 38 28 45 28 7 0 44 15 82 34 49 24
74 31 83 24 8 -7 17 -7 27 2 10 8 19 9 28 3 6 -6 30 -14 52 -18 22 -3 48 -14
57 -22 13 -12 24 -13 45 -6 16 6 38 7 51 2 13 -5 65 -13 115 -18 95 -10 122
-16 272 -61 85 -26 90 -28 98 -61 10 -37 24 -59 39 -59 11 0 6 82 -7 113 -5
13 -3 16 8 11 8 -3 33 4 56 15 61 32 69 25 17 -15 -49 -38 -54 -60 -8 -43 15
6 60 29 100 51 60 33 79 39 105 33 18 -3 66 -8 107 -9 54 -2 93 -10 142 -30
52 -21 72 -25 87 -17 26 14 33 14 57 -3 19 -15 19 -15 -1 -30 l-20 -16 20 -16
c15 -12 33 -14 70 -10 71 8 121 -8 140 -44 20 -38 45 -39 45 -2 0 32 9 46 33
55 23 9 17 31 -9 35 -15 3 -16 1 -4 -7 21 -14 9 -20 -19 -10 -35 14 -14 29 41
31 33 0 51 -5 66 -20 44 -44 128 -52 223 -23 55 18 65 18 90 5 15 -8 30 -14
33 -14 9 0 45 56 51 81 5 21 2 26 -27 34 -41 12 -50 53 -19 84 26 26 42 26 75
0 19 -15 26 -30 26 -54 0 -24 7 -37 25 -49 14 -9 25 -25 25 -36 0 -28 25 -25
49 6 11 14 26 24 33 22 7 -3 22 -31 33 -63 11 -32 25 -60 32 -62 7 -3 26 15
43 38 24 33 29 49 25 71 -6 24 -3 28 15 28 11 0 37 -7 57 -15 31 -13 35 -18
30 -43 -3 -15 1 -38 8 -52 8 -14 14 -31 15 -38 0 -18 -78 -52 -122 -52 -21 0
-38 -4 -38 -9 0 -21 45 -62 80 -72 39 -12 100 -59 100 -78 0 -15 -16 -14 -51
4 -29 15 -30 15 -59 -17 l-30 -32 -37 18 c-32 15 -35 19 -20 27 12 7 17 23 17
60 0 44 -3 51 -26 59 -35 14 -57 12 -80 -4 -21 -16 -24 -13 56 -42 24 -9 -35
-54 -71 -54 -37 0 -69 -16 -69 -35 0 -8 -13 -29 -28 -47 -67 -77 -102 -131
-102 -157 0 -37 26 -71 56 -71 25 0 28 -4 38 -52 5 -20 13 -28 27 -28 11 0 52
-19 90 -41 81 -49 131 -68 177 -69 l32 0 -2 -60 c-3 -57 -2 -61 37 -100 47
-49 68 -62 89 -54 20 8 26 27 36 119 5 46 18 97 29 120 27 50 26 62 -5 120
-15 29 -22 54 -18 64 13 30 16 46 18 101 3 87 15 100 91 100 57 0 68 -3 109
-35 26 -19 50 -35 55 -35 5 0 14 -7 21 -15 11 -13 11 -20 0 -39 -15 -29 -7
-56 25 -86 20 -18 28 -21 37 -12 7 7 22 12 35 12 12 0 38 14 56 30 19 17 39
30 45 30 5 0 15 -20 22 -45 7 -25 22 -58 34 -73 12 -14 26 -40 31 -56 8 -22
26 -38 78 -65 37 -20 67 -38 67 -41 0 -3 -14 -10 -32 -15 -32 -10 -58 -39 -46
-51 4 -3 30 -1 58 6 71 17 82 11 78 -47 l-3 -48 -65 -23 c-39 -14 -107 -27
-169 -33 -118 -11 -157 -28 -226 -98 -54 -56 -36 -72 29 -26 50 36 103 52 132
41 13 -5 14 -9 4 -21 -7 -8 -21 -15 -31 -15 -28 0 -23 -22 10 -54 20 -20 37
-27 50 -23 16 4 21 0 21 -14 0 -31 26 -33 64 -4 19 15 40 24 46 20 8 -5 6 -11
-7 -19 -10 -6 -34 -20 -52 -31 -19 -11 -56 -34 -82 -52 -41 -27 -49 -29 -49
-14 0 19 40 61 58 61 7 0 12 5 12 10 0 19 -46 10 -129 -24 -104 -43 -126 -63
-126 -118 0 -40 -2 -43 -35 -49 -40 -8 -93 -63 -112 -115 -11 -31 -12 -32 -22
-12 -20 38 -31 14 -31 -63 0 -64 -3 -80 -22 -100 -121 -134 -163 -184 -163
-193 0 -6 14 -62 30 -125 16 -63 27 -118 24 -123 -20 -32 -61 27 -84 118 -15
63 -42 81 -130 89 -59 5 -79 3 -95 -9 -17 -13 -18 -18 -7 -35 11 -18 10 -21
-7 -21 -11 0 -50 7 -87 16 -78 18 -92 15 -155 -25 -44 -27 -47 -32 -54 -87
-15 -111 -10 -195 14 -249 29 -65 56 -93 98 -101 71 -13 133 15 133 60 0 27
27 54 66 66 l29 8 -32 1 c-39 1 -73 -28 -73 -63 0 -41 -25 -56 -90 -56 -52 0
-61 3 -83 30 -46 54 -61 120 -53 234 4 57 13 110 21 122 23 35 81 57 134 50
105 -14 161 -18 161 -12 0 4 -5 16 -10 26 -16 29 14 39 92 31 82 -9 103 -25
119 -97 8 -35 24 -68 45 -92 31 -35 33 -36 50 -20 16 16 16 23 -10 130 -14 62
-26 121 -26 131 0 15 38 61 157 188 26 29 30 61 19 139 -7 45 -7 45 9 18 9
-16 18 -28 21 -28 2 0 14 21 25 48 24 55 65 102 90 102 10 0 29 5 43 11 23 11
25 16 19 54 -4 35 -2 46 16 64 11 11 27 21 35 21 7 0 39 11 70 25 31 14 59 25
61 25 3 0 -4 -14 -14 -31 -19 -31 -18 -59 1 -59 5 0 24 11 41 24 18 13 52 34
76 47 24 13 54 30 67 37 27 15 31 34 9 52 -12 10 -20 7 -46 -14 -37 -31 -59
-33 -59 -5 0 17 -4 20 -22 16 -15 -4 -30 1 -45 15 -26 25 -29 38 -8 38 18 0
36 32 26 48 -7 12 -30 16 -67 14 -12 -1 -45 -18 -74 -38 -28 -19 -54 -34 -56
-31 -8 8 77 79 112 93 19 8 83 21 142 29 117 15 189 34 227 59 19 13 25 25 25
54 0 68 -21 81 -110 68 -47 -7 -39 2 23 24 16 6 27 15 25 21 -2 6 -33 27 -68
46 -36 18 -69 44 -75 56 -5 13 -20 37 -33 55 -13 18 -31 55 -40 84 -9 28 -22
53 -29 55 -6 2 -27 -10 -47 -28 -47 -40 -103 -54 -129 -31 -15 13 -17 25 -12
62 l6 45 -73 52 c-63 46 -79 53 -120 53 -26 0 -58 -4 -71 -9 -29 -11 -60 -81
-51 -116 3 -13 0 -46 -6 -72 -11 -44 -11 -51 9 -83 26 -44 27 -85 2 -134 -11
-21 -23 -63 -26 -94 -11 -110 -15 -122 -34 -122 -10 0 -37 18 -60 40 -40 39
-41 42 -41 104 l0 64 -52 7 c-30 4 -84 24 -127 48 -42 22 -90 47 -108 55 -21
10 -34 26 -38 43 -7 33 -21 46 -55 51 -55 7 -27 99 56 188 24 26 44 54 44 64
0 9 3 16 8 17 4 1 21 2 39 4 40 3 95 42 91 64 -2 9 -19 22 -38 28 l-35 13 45
-3 c43 -2 45 -3 48 -35 2 -20 -4 -44 -14 -59 -16 -25 -16 -27 2 -40 38 -28 64
-27 95 3 30 28 30 29 60 11 23 -13 35 -14 50 -7 10 6 19 15 19 20 0 18 -73 79
-109 91 -68 22 -79 44 -28 54 32 7 117 51 117 61 0 3 -7 19 -16 36 -9 17 -13
40 -10 54 11 43 -45 80 -110 72 -27 -3 -29 -6 -26 -40 3 -36 -9 -51 -23 -28
-9 15 -25 12 -25 -5 0 -8 7 -15 15 -15 19 0 19 -14 -1 -31 -13 -10 -17 -10
-25 2 -5 8 -9 22 -9 32 0 24 -27 74 -42 80 -7 2 -28 -9 -45 -26 -31 -29 -33
-30 -33 -9 0 12 -11 29 -24 37 -16 11 -22 22 -19 35 3 11 -7 33 -26 57 -29 36
-30 41 -19 71 7 18 16 32 19 32 4 0 21 12 38 26 34 28 40 58 15 68 -23 9 -84
-3 -113 -21 -22 -14 -23 -20 -18 -78 6 -57 4 -64 -18 -85 -32 -30 -39 -54 -25
-80 16 -29 6 -36 -24 -16 -34 22 -45 20 -85 -14 l-34 -29 26 -10 c63 -24 7
-53 -92 -49 -62 3 -66 4 -63 26 2 12 -2 22 -7 22 -6 0 -11 -7 -11 -15 0 -21
-12 -19 -33 5 -12 14 -29 20 -57 20 -50 0 -52 17 -2 26 27 5 53 1 97 -15 105
-39 99 -39 80 -1 -9 17 -15 33 -13 34 2 1 16 10 31 19 33 21 27 37 -14 37 -34
0 -68 16 -86 39 -20 27 -34 100 -24 120 7 12 6 22 -1 29 -17 17 -38 15 -38 -2
0 -8 -12 -21 -27 -28 -16 -8 -32 -26 -38 -44 l-10 -31 -28 28 c-32 32 -79 49
-85 30 -5 -15 -74 -3 -85 15 -4 8 -21 14 -37 14 -20 0 -30 5 -30 15 0 24 -51
43 -140 50 -68 5 -89 3 -106 -9z m204 -22 c18 -7 32 -20 32 -30 0 -22 -28 -54
-48 -54 -9 0 -6 7 9 20 24 21 24 21 -19 0 -24 -11 -45 -27 -49 -35 -3 -8 -10
-15 -16 -15 -6 0 -28 -12 -50 -27 -32 -22 -42 -25 -55 -15 -9 7 -29 20 -43 29
l-27 17 24 19 c18 14 24 28 24 56 0 29 5 40 23 49 27 14 149 5 195 -14z m912
-9 c0 -8 -17 -24 -39 -37 -22 -13 -43 -34 -49 -52 -15 -40 -32 -23 -39 37 -5
42 -4 45 23 55 45 16 104 15 104 -3z m-506 -48 c-5 -32 -1 -54 16 -91 23 -48
49 -66 96 -66 30 0 30 -7 2 -30 -20 -16 -21 -21 -10 -39 15 -25 14 -25 -34 -5
-77 33 -102 34 -180 8 -89 -29 -160 -31 -194 -6 -13 9 -42 24 -64 33 l-39 16
81 5 c92 7 109 13 91 34 -8 10 -34 14 -89 14 -82 0 -93 6 -105 50 -5 22 0 29
37 50 74 43 78 43 78 10 0 -33 16 -39 35 -14 10 14 15 14 33 3 19 -12 23 -11
34 4 12 15 16 16 43 2 17 -9 37 -24 47 -35 9 -11 21 -20 26 -20 11 0 22 24 22
50 0 11 11 22 30 29 17 5 30 17 30 25 0 9 4 16 10 16 6 0 7 -18 4 -43z m291
-213 c18 -11 35 -14 65 -9 22 4 40 4 40 0 0 -18 -43 -75 -56 -75 -18 0 -18 14
1 30 28 23 15 30 -17 10 -42 -25 -60 -25 -83 0 -17 19 -17 21 0 40 22 24 20
24 50 4z m-1229 -43 c-3 -5 -16 -11 -28 -14 -22 -6 -22 -5 -4 8 22 17 40 20
32 6z m231 -1047 c31 -23 53 -68 40 -81 -15 -15 -152 92 -140 110 9 15 63 -1
100 -29z"/>
<path d="M1545 4778 c17 -6 42 -22 58 -36 15 -14 27 -21 27 -14 0 16 -71 62
-95 61 -15 0 -12 -3 10 -11z"/>
<path d="M10850 6154 c0 -9 5 -14 12 -12 18 6 21 28 4 28 -9 0 -16 -7 -16 -16z"/>
<path d="M8990 6140 c10 -19 8 -20 -34 -20 -40 0 -46 -3 -52 -25 -8 -31 7 -50
57 -76 37 -18 59 -64 44 -89 -10 -16 -25 -1 -25 24 0 29 -22 49 -83 75 -27 12
-57 31 -67 44 -15 18 -21 20 -32 9 -11 -11 -10 -16 5 -26 26 -20 21 -28 -13
-21 -40 9 -40 -12 0 -50 36 -35 33 -42 -10 -20 -20 10 -38 32 -50 61 -11 24
-22 44 -25 44 -2 0 -16 -18 -30 -41 -23 -36 -25 -47 -20 -94 8 -62 19 -74 83
-95 49 -16 87 -63 80 -97 -3 -13 -9 -8 -20 19 -9 20 -28 44 -42 53 -32 22 -47
11 -81 -55 -38 -76 -80 -98 -50 -27 17 41 20 164 6 215 -6 19 -6 45 -1 63 12
39 5 55 -31 69 -43 18 -76 5 -105 -42 -14 -22 -37 -51 -51 -64 -31 -29 -26
-58 17 -108 28 -31 40 -66 22 -66 -4 0 -24 11 -44 25 -39 27 -102 44 -159 45
-27 0 -43 -8 -69 -35 -40 -41 -55 -44 -46 -10 8 30 -7 32 -49 7 -16 -10 -49
-26 -72 -35 -41 -16 -43 -16 -57 5 -16 22 -16 22 -63 5 -27 -9 -55 -17 -63
-17 -8 0 -45 -21 -83 -46 -38 -27 -73 -44 -82 -40 -22 8 -18 23 7 29 18 5 19
8 8 22 -18 22 -64 45 -91 45 -19 0 -21 -3 -13 -37 4 -21 8 -51 8 -68 1 -28 -1
-30 -35 -27 -29 3 -44 -3 -73 -28 -20 -18 -36 -39 -36 -47 0 -12 -7 -14 -27
-9 -98 22 -114 18 -73 -19 27 -24 25 -38 -2 -30 -29 9 -68 44 -68 61 0 7 -14
29 -31 49 -35 40 -24 46 39 19 79 -34 203 -9 210 43 4 27 -41 62 -133 103 -39
17 -87 40 -107 50 -25 14 -57 20 -100 20 -48 1 -59 3 -45 11 26 15 21 39 -8
39 -15 0 -39 7 -54 14 -15 8 -38 12 -50 9 -11 -3 -28 0 -36 7 -11 9 -22 9 -46
1 -21 -7 -37 -7 -50 0 -20 10 -39 5 -39 -12 0 -5 9 -9 19 -9 25 0 36 -16 16
-24 -15 -5 -86 6 -117 19 -26 10 -22 -12 4 -26 21 -11 21 -12 3 -25 -10 -7
-38 -16 -64 -19 -25 -4 -57 -11 -69 -16 l-24 -9 23 -19 c22 -18 20 -41 -5 -41
-6 0 -30 -18 -51 -41 -22 -22 -52 -47 -67 -55 -16 -8 -28 -21 -28 -29 0 -8
-16 -21 -35 -29 -40 -17 -41 -21 -19 -64 18 -36 4 -78 -23 -68 -49 19 -63 18
-72 -6 -5 -14 -25 -34 -45 -46 -44 -26 -49 -46 -39 -147 7 -70 11 -81 32 -92
29 -14 80 3 119 40 28 26 30 24 68 -90 32 -91 45 -103 93 -79 17 9 37 16 46
16 29 0 55 38 55 80 0 33 4 42 24 51 35 16 41 63 15 105 -16 27 -19 43 -14 74
6 34 16 47 61 81 31 22 60 52 66 67 19 49 25 57 51 70 20 10 32 10 47 2 25
-14 17 -32 -51 -111 -55 -63 -66 -97 -49 -158 15 -57 42 -69 106 -47 52 18
159 22 169 6 7 -11 -18 -17 -109 -24 -95 -8 -114 -28 -82 -91 8 -15 12 -34 9
-42 -4 -11 -10 -10 -29 8 l-24 22 -25 -23 c-16 -15 -25 -34 -25 -55 0 -55 -52
-105 -89 -86 -23 13 -84 -3 -125 -32 l-29 -20 -16 22 c-14 19 -22 20 -65 15
-63 -9 -78 7 -63 66 9 33 8 43 -4 55 -13 13 -17 13 -38 -1 -22 -16 -23 -21
-17 -88 l6 -71 -37 -1 c-49 -2 -107 -37 -132 -80 -11 -19 -27 -34 -36 -34 -9
0 -36 -20 -61 -45 -29 -28 -58 -47 -80 -51 -19 -3 -39 -15 -45 -25 -6 -12 -21
-19 -38 -19 -16 0 -34 -6 -40 -14 -10 -11 -5 -20 25 -42 59 -45 90 -135 64
-184 -9 -18 -19 -19 -129 -13 -95 5 -120 3 -127 -8 -5 -8 -9 -43 -10 -79 0
-36 -4 -85 -8 -110 -7 -41 -5 -49 19 -78 15 -18 33 -32 41 -32 8 0 28 -9 43
-21 l28 -21 74 27 c86 30 125 63 134 111 4 25 16 41 43 58 48 30 71 57 81 92
7 26 14 30 67 40 32 6 72 16 87 23 16 6 33 11 38 11 5 0 44 -36 86 -81 49 -51
87 -82 105 -86 34 -7 48 -23 51 -59 2 -26 -1 -29 -53 -39 -66 -12 -72 -31 -19
-59 41 -22 69 -16 69 14 0 13 10 24 25 30 25 10 30 22 26 73 -2 26 -1 28 18
17 17 -9 22 -8 27 5 9 21 -6 35 -75 74 -54 31 -64 41 -97 108 -21 40 -35 76
-31 79 3 4 22 -6 40 -22 19 -16 66 -56 105 -88 51 -42 76 -72 90 -105 10 -25
33 -68 51 -95 17 -28 31 -63 31 -78 0 -35 19 -36 68 -6 33 20 35 20 48 4 7
-10 17 -15 23 -11 18 11 12 37 -9 42 -11 3 -20 11 -20 18 0 8 -11 22 -25 33
-14 11 -25 26 -25 33 0 7 3 9 6 6 4 -3 18 3 32 13 44 35 82 20 82 -32 0 -25
-2 -27 -19 -18 -14 7 -22 7 -26 -1 -8 -12 -9 -11 28 -27 16 -7 27 -19 27 -31
0 -10 7 -24 15 -31 9 -7 13 -21 9 -35 -3 -13 -1 -26 5 -29 7 -5 11 2 11 15 0
19 4 21 36 16 20 -4 44 -2 53 3 10 5 36 4 64 -2 33 -7 57 -6 79 1 17 6 33 9
36 7 6 -7 -36 -166 -55 -205 -20 -39 -55 -51 -93 -31 -15 8 -31 8 -61 -1 -37
-12 -49 -10 -171 32 l-130 44 -22 -26 c-11 -15 -28 -40 -38 -57 -20 -38 -33
-36 -148 29 -47 26 -98 51 -113 55 -40 9 -62 46 -47 75 16 29 -3 94 -31 109
-33 18 -237 -7 -368 -46 -117 -35 -165 -41 -176 -24 -13 20 -35 9 -54 -27 -10
-21 -40 -57 -65 -79 -43 -38 -46 -45 -46 -90 0 -56 -23 -101 -70 -135 -16 -13
-53 -55 -80 -93 -28 -39 -60 -84 -73 -99 -20 -26 -23 -43 -28 -185 -4 -86 -12
-174 -19 -194 -11 -32 -11 -40 2 -55 39 -44 128 -184 128 -202 0 -58 145 -194
207 -194 77 1 245 24 301 42 92 30 114 28 153 -16 30 -35 37 -38 88 -38 l56 0
1 -133 2 -134 31 -41 c18 -23 39 -58 47 -77 8 -19 26 -57 39 -85 13 -28 26
-79 30 -115 5 -56 2 -77 -25 -153 -38 -111 -38 -154 -1 -242 16 -39 37 -114
45 -167 17 -105 43 -183 98 -293 50 -99 53 -113 31 -137 -18 -20 -17 -21 21
-54 22 -19 50 -34 63 -34 51 0 220 32 259 50 77 34 204 214 204 289 0 45 15
73 54 101 56 40 62 58 42 139 -21 87 -18 95 74 162 97 70 115 103 114 204 0
53 -7 100 -21 140 -30 85 -38 168 -22 208 28 69 92 156 177 239 60 58 104 112
135 165 49 84 97 192 97 218 0 9 12 27 27 41 45 42 19 49 -91 25 -53 -11 -111
-21 -129 -21 -33 0 -77 23 -77 41 0 5 -26 46 -57 90 -32 44 -68 94 -80 112
-12 18 -32 45 -45 61 -15 20 -24 50 -30 98 -4 39 -12 75 -17 82 -6 7 -17 30
-25 52 -7 22 -37 80 -65 129 -53 92 -66 128 -30 85 14 -17 22 -21 26 -12 16
39 67 -30 92 -125 7 -27 22 -50 40 -62 23 -17 31 -33 40 -82 8 -50 20 -75 61
-127 29 -39 52 -80 56 -101 19 -120 26 -142 50 -158 24 -16 30 -14 182 61 86
43 185 97 218 122 64 45 144 132 144 156 0 7 7 24 16 36 21 30 13 46 -36 77
-26 16 -49 42 -62 70 l-22 45 -41 -40 c-23 -22 -56 -45 -75 -50 -18 -5 -34 -9
-34 -7 -1 1 -8 16 -17 32 -82 148 -112 217 -99 225 21 13 44 -1 95 -58 58 -64
90 -82 149 -82 35 0 48 -4 56 -20 17 -31 49 -39 187 -49 120 -8 126 -10 156
-39 18 -17 49 -38 71 -47 35 -15 37 -17 20 -30 -18 -13 -18 -14 0 -34 30 -33
57 -37 77 -10 18 24 19 24 19 -50 0 -73 26 -189 54 -241 7 -14 19 -43 26 -65
7 -22 33 -80 57 -128 50 -101 55 -101 100 -14 17 34 28 81 36 145 l11 95 135
133 c102 101 141 134 160 134 14 1 37 7 51 15 14 8 28 14 32 15 6 0 57 -74 91
-134 10 -17 17 -47 16 -66 -2 -58 0 -68 17 -74 9 -4 32 3 52 14 19 12 37 19
39 16 13 -13 36 -152 42 -251 5 -87 11 -117 28 -145 11 -19 24 -51 28 -70 10
-48 30 -84 72 -131 46 -50 73 -52 73 -4 0 46 -33 130 -68 174 -16 20 -37 52
-47 71 -9 19 -24 42 -32 51 -12 15 -12 24 2 73 l17 57 41 -3 c35 -3 44 -8 56
-33 8 -16 22 -36 31 -42 10 -7 21 -28 24 -47 4 -20 11 -38 15 -40 5 -3 43 24
85 60 71 60 76 67 76 104 0 76 -20 137 -71 210 -27 39 -49 79 -49 89 0 9 16
33 35 51 l36 35 31 -18 c27 -15 33 -16 40 -4 8 15 90 48 167 67 51 13 146 98
177 157 10 21 31 58 47 82 29 48 35 87 15 94 -10 3 -10 7 0 20 15 18 8 37 -14
37 -8 0 -14 5 -14 10 0 6 6 10 14 10 28 0 26 18 -9 76 -19 32 -35 65 -35 74 0
20 33 52 78 74 50 25 35 40 -45 46 -74 5 -108 22 -95 47 11 19 102 83 119 83
11 0 11 -6 -2 -30 -31 -60 -14 -77 37 -35 47 40 95 29 86 -19 -4 -19 2 -34 23
-56 24 -25 29 -38 29 -81 l0 -52 40 6 c78 10 86 38 44 154 l-26 72 22 28 c12
15 44 52 71 81 47 51 52 53 88 47 35 -6 40 -3 84 42 61 63 123 146 152 203 19
39 29 73 51 179 11 53 26 -2 33 -121 5 -69 11 -130 15 -136 10 -17 43 -15 50
3 3 8 -1 30 -9 49 -24 56 -20 77 13 74 31 -3 32 4 7 72 -9 25 -19 79 -22 120
-5 94 -11 120 -24 120 -5 0 -12 -8 -16 -17 -3 -10 -12 -34 -20 -53 l-14 -34
-19 31 c-24 40 -44 46 -100 28 -38 -11 -40 -14 -17 -14 16 -1 38 4 49 10 17 9
24 7 42 -10 17 -18 21 -33 19 -85 -2 -121 -38 -209 -141 -345 -67 -89 -104
-114 -139 -98 -21 9 -28 6 -59 -24 -20 -19 -58 -60 -85 -91 l-50 -57 31 -78
c16 -43 30 -86 30 -95 0 -18 -53 -52 -72 -46 -7 3 -12 26 -14 53 -1 40 -7 53
-29 71 -23 18 -26 26 -20 53 6 27 3 32 -20 41 -42 16 -67 12 -97 -17 -30 -28
-38 -20 -13 13 16 21 19 50 7 58 -13 8 -89 -35 -123 -70 -20 -21 -29 -39 -25
-49 10 -26 75 -48 128 -43 26 3 45 1 42 -4 -3 -4 -10 -8 -16 -8 -20 0 -79 -51
-89 -77 -8 -20 -3 -35 28 -85 37 -60 37 -68 -1 -81 -17 -6 4 -27 26 -27 21 0
21 0 -1 -24 l-23 -24 21 -7 c28 -9 26 -29 -8 -78 -15 -23 -32 -53 -36 -67 -4
-14 -35 -53 -68 -88 -50 -52 -70 -65 -116 -78 -95 -26 -145 -47 -159 -63 -10
-13 -16 -13 -32 -3 -11 6 -26 12 -34 12 -16 0 -96 -77 -96 -92 0 -6 20 -39 45
-74 57 -79 75 -130 75 -208 l0 -61 -61 -50 c-74 -61 -79 -63 -79 -31 0 14 -10
36 -22 48 -13 12 -30 36 -38 52 -11 22 -25 32 -50 38 -52 11 -67 2 -84 -49
-21 -60 -20 -82 4 -113 11 -14 20 -30 20 -35 0 -6 20 -34 44 -63 42 -52 58
-87 71 -164 8 -45 -4 -49 -40 -14 -27 27 -75 118 -75 142 0 10 -12 37 -26 61
-22 38 -26 57 -28 146 -2 56 -10 131 -20 167 -9 36 -19 75 -21 88 -7 27 -19
28 -52 2 -14 -11 -34 -20 -44 -20 -16 0 -19 8 -19 59 0 53 -4 65 -46 127 -67
99 -67 99 -95 80 -13 -8 -43 -18 -66 -22 -34 -5 -50 -15 -77 -48 -35 -43 -149
-156 -201 -199 -27 -23 -30 -31 -36 -114 -4 -66 -13 -105 -34 -151 -15 -34
-31 -62 -35 -62 -9 0 -100 191 -100 210 0 9 -6 24 -14 35 -23 34 -54 156 -60
244 -8 102 -19 128 -37 88 -14 -30 -40 -35 -59 -12 -11 13 -10 18 5 29 17 12
17 14 -6 29 -13 10 -29 17 -36 17 -6 0 -32 17 -56 39 -45 38 -46 38 -153 45
-136 9 -177 20 -198 51 -14 21 -24 24 -64 24 -63 -2 -105 21 -148 80 -35 49
-51 61 -84 61 -44 0 -42 -24 15 -131 30 -57 60 -116 66 -131 6 -16 18 -28 27
-28 30 1 98 37 119 64 24 30 33 33 33 9 0 -22 33 -61 83 -97 37 -27 38 -29 23
-52 -9 -13 -16 -30 -16 -38 0 -8 -33 -47 -73 -88 -66 -68 -87 -82 -244 -161
-94 -48 -181 -87 -191 -87 -11 0 -25 7 -32 15 -9 11 -27 106 -30 157 0 4 -22
35 -48 70 -49 63 -65 98 -77 171 -5 29 -14 43 -36 55 -16 10 -29 25 -29 37 0
24 -42 115 -72 157 -20 29 -22 29 -34 13 -13 -17 -14 -17 -33 6 -18 22 -20 23
-27 5 -7 -18 1 -38 68 -161 54 -98 75 -156 83 -225 6 -49 14 -73 34 -96 14
-17 34 -44 43 -60 10 -16 40 -58 68 -94 28 -36 57 -80 65 -98 9 -19 30 -39 49
-49 31 -14 41 -14 141 6 59 13 109 20 111 18 3 -2 -2 -10 -11 -17 -8 -7 -15
-19 -15 -27 0 -28 -61 -167 -108 -246 -33 -55 -71 -101 -124 -149 -82 -74
-158 -177 -183 -249 -17 -47 -9 -113 26 -221 25 -74 25 -181 1 -228 -9 -19
-50 -59 -91 -91 -85 -65 -103 -91 -89 -129 5 -14 10 -50 11 -80 2 -54 0 -57
-44 -100 -39 -38 -47 -53 -53 -93 -12 -96 -121 -253 -195 -284 -19 -8 -84 -23
-144 -33 -95 -16 -114 -17 -137 -5 -45 23 -56 42 -35 65 17 18 15 23 -33 127
-68 143 -80 180 -102 299 -10 55 -32 135 -49 178 -17 43 -31 86 -31 96 0 10
11 55 25 101 14 46 30 98 34 115 12 45 -7 152 -35 200 -13 22 -24 47 -24 55 0
8 -21 44 -46 80 l-46 64 6 115 c7 150 0 166 -72 162 -48 -2 -53 0 -85 35 -41
44 -67 46 -171 14 -37 -12 -87 -21 -110 -21 -22 0 -75 -5 -117 -11 -73 -12
-78 -11 -115 11 -82 51 -134 112 -134 157 0 10 -21 49 -47 86 -98 138 -97 137
-84 187 7 25 15 112 18 194 6 143 7 150 33 180 15 17 45 58 67 91 22 33 55 70
72 83 46 34 64 68 72 135 7 55 11 64 49 95 22 19 50 52 61 73 21 43 30 47 50
23 16 -19 47 -14 189 31 84 26 130 34 227 40 117 7 122 6 133 -14 6 -12 10
-47 8 -79 l-3 -57 90 -45 c50 -25 112 -58 140 -73 64 -36 84 -32 113 20 13 23
32 45 43 48 11 4 65 -9 127 -29 83 -28 122 -36 172 -35 36 1 79 -2 96 -6 26
-6 34 -3 52 19 11 15 28 52 37 84 9 31 21 70 26 86 5 16 9 41 9 56 l0 27 -122
-2 c-147 -4 -172 5 -188 66 -17 62 -10 93 21 97 15 2 35 12 45 23 9 10 27 19
38 19 12 0 41 9 65 20 54 25 74 25 147 -1 66 -23 140 -27 173 -10 40 22 26 54
-50 123 l-70 63 16 32 c19 38 13 53 -19 53 -28 0 -92 -26 -101 -40 -4 -6 0
-19 9 -29 9 -10 16 -21 16 -24 0 -11 -26 -8 -54 5 -20 8 -24 16 -20 34 4 16 0
25 -15 34 -30 16 -54 6 -96 -42 -46 -51 -74 -112 -75 -161 0 -64 -13 -77 -74
-77 -35 0 -58 -5 -66 -15 -7 -8 -18 -15 -26 -15 -24 0 -24 -18 1 -48 33 -40
32 -56 -9 -81 -40 -25 -46 -26 -46 -6 0 9 12 20 26 25 18 7 24 15 20 26 -3 9
-6 18 -6 20 0 2 -8 4 -17 4 -15 0 -14 -2 3 -15 17 -13 17 -14 2 -15 -25 0 -65
47 -97 115 -17 36 -47 77 -73 100 -23 21 -72 65 -107 98 l-64 60 -19 -22 c-20
-26 -19 -28 37 -117 23 -36 52 -63 99 -93 71 -44 80 -55 41 -45 -24 6 -25 4
-25 -39 0 -25 -4 -49 -10 -52 -6 -4 -10 8 -10 28 0 37 -23 63 -80 92 -19 10
-63 49 -99 86 -69 74 -92 82 -141 54 -14 -8 -46 -14 -72 -15 -50 0 -54 -4 -78
-62 -10 -25 -32 -48 -65 -70 -39 -26 -51 -40 -53 -63 -5 -48 -32 -73 -107
-100 -81 -28 -101 -30 -108 -11 -3 8 -19 17 -35 21 -17 3 -38 15 -47 25 -19
21 -19 22 -8 160 l8 95 77 -1 c43 -1 91 -4 107 -7 47 -10 86 28 84 81 -2 56
-37 119 -79 144 -39 23 -36 42 6 33 23 -5 32 -2 45 18 9 14 29 27 45 31 17 3
49 23 72 44 24 22 57 43 73 49 21 6 33 19 39 39 10 32 77 71 131 76 l30 3 3
75 c3 76 13 103 32 84 6 -6 6 -23 -1 -48 -10 -35 -9 -41 14 -64 23 -23 29 -24
66 -15 36 10 42 8 54 -11 l14 -21 60 29 c49 23 68 27 100 22 34 -6 45 -3 71
19 25 21 32 35 32 62 0 39 15 73 32 73 6 0 19 -7 29 -16 22 -20 49 -12 49 15
0 11 -8 33 -17 49 -25 43 -6 62 61 63 89 1 131 12 131 34 0 30 -62 42 -133 26
-108 -25 -114 -25 -129 -5 -7 10 -13 41 -13 69 0 49 3 56 60 120 60 68 70 91
48 113 -35 35 -111 -4 -122 -62 -5 -27 -17 -41 -57 -66 -77 -50 -101 -122 -60
-183 20 -30 17 -77 -5 -77 -22 0 -44 -43 -44 -87 0 -34 -4 -43 -17 -43 -10 0
-37 -9 -60 -19 -48 -22 -53 -19 -73 44 -7 22 -23 64 -36 93 l-23 53 -52 -36
c-28 -19 -62 -35 -75 -35 -22 0 -50 31 -38 43 3 3 1 30 -6 61 -15 71 -10 85
45 124 25 17 45 38 45 46 0 12 5 12 30 3 56 -21 91 34 55 89 -15 23 -15 25 10
34 15 6 31 10 36 10 5 0 9 10 9 23 0 13 10 27 25 35 14 6 36 18 50 25 13 6 27
22 29 34 4 12 19 26 37 32 27 9 30 14 27 43 -3 31 -1 33 37 40 84 14 115 26
109 43 -4 10 3 12 34 8 32 -4 42 -1 54 16 19 27 82 42 72 17 -7 -19 7 -21 24
-4 8 8 15 8 27 -2 12 -10 15 -10 15 4 0 16 2 16 22 2 12 -9 33 -16 45 -16 28
0 29 -8 6 -26 -28 -21 2 -35 61 -27 38 5 58 1 90 -14 23 -11 80 -39 127 -62
47 -23 94 -50 104 -62 18 -19 18 -20 -1 -40 -31 -31 -115 -35 -187 -10 -70 24
-98 19 -69 -13 11 -11 29 -40 41 -63 24 -48 64 -83 97 -83 34 0 39 18 13 47
-22 24 -22 25 -4 19 69 -27 76 -28 90 -16 8 7 15 21 15 30 0 26 61 61 101 58
32 -3 34 -1 37 30 2 19 -1 47 -7 64 -6 17 -9 33 -6 36 3 3 23 -3 46 -13 l41
-19 -23 -17 c-20 -15 -21 -19 -10 -33 21 -26 53 -19 110 24 29 22 60 40 70 40
14 1 57 15 103 34 11 5 18 1 23 -13 9 -29 39 -26 109 9 32 17 60 30 61 30 2 0
2 -8 1 -17 -2 -30 30 -25 73 11 39 32 46 35 89 30 26 -3 75 -19 109 -36 52
-25 65 -29 78 -18 21 18 19 33 -11 61 -14 13 -33 37 -41 53 -14 27 -14 30 15
56 16 15 37 41 46 58 21 40 43 51 82 41 30 -8 30 -10 33 -81 8 -217 -4 -296
-44 -290 -77 13 -85 13 -85 3 0 -15 60 -51 85 -51 30 0 74 40 109 101 25 41
38 54 56 54 12 0 26 -7 30 -15 30 -65 38 -75 59 -78 33 -5 48 13 22 27 -12 7
-21 20 -21 31 0 10 -14 32 -31 49 -28 29 -43 36 -93 43 -15 2 -23 17 -32 60
-13 54 -12 60 8 93 l21 36 18 -40 c20 -45 74 -79 106 -67 16 7 14 11 -20 39
-40 34 -49 54 -17 37 14 -7 25 -7 37 1 14 8 31 6 75 -11 47 -17 59 -27 64 -48
10 -48 14 -54 31 -50 14 3 18 13 17 43 -1 30 -9 45 -33 67 -17 15 -38 28 -46
28 -10 0 -15 10 -15 31 l0 32 110 -6 c118 -6 133 0 88 39 l-23 19 20 -24 20
-24 -55 6 c-31 4 -60 13 -66 22 -17 23 -37 19 -24 -5z m-430 -452 c41 -13 54
-28 23 -28 -21 1 -94 39 -75 40 7 0 30 -6 52 -12z m2564 -713 c-7 -40 13 -169
32 -207 19 -37 18 -54 -1 -38 -11 9 -19 10 -27 2 -9 -9 -9 -23 4 -107 2 -11
-1 -22 -7 -25 -14 -7 -22 42 -24 139 0 46 -6 101 -12 122 -10 31 -9 48 7 97
20 63 39 74 28 17z m-3724 -384 c0 -11 -4 -23 -10 -26 -23 -14 -6 -45 60 -104
39 -34 70 -69 70 -76 0 -41 -87 -45 -189 -10 l-72 26 -82 -28 c-45 -14 -92
-36 -104 -47 -20 -17 -23 -17 -23 -3 0 9 5 19 11 23 6 4 8 20 4 40 -13 69 79
208 134 202 19 -2 25 -8 23 -21 -7 -38 53 -76 89 -57 23 13 25 36 3 44 -24 9
-12 28 27 42 48 18 59 17 59 -5z m-803 -417 c10 -27 -12 -37 -46 -20 -41 22
-39 36 4 36 23 0 38 -6 42 -16z"/>
<path d="M2522 6129 c-38 -18 -43 -24 -38 -44 6 -22 4 -23 -24 -12 -16 6 -33
8 -37 3 -9 -9 66 -76 115 -103 31 -17 33 -17 66 1 44 23 50 40 28 74 -9 14
-17 42 -17 62 0 30 -3 35 -25 37 -14 1 -45 -7 -68 -18z m83 1 c3 -5 1 -19 -5
-30 -8 -16 -6 -26 11 -49 28 -37 20 -57 -25 -65 -30 -6 -43 -2 -79 23 -24 16
-50 37 -58 47 -13 16 -12 16 9 5 33 -18 56 -7 42 19 -9 17 -7 22 17 30 15 6
37 14 48 19 27 13 33 13 40 1z"/>
<path d="M8550 6125 c0 -9 5 -15 11 -13 6 2 11 8 11 13 0 5 -5 11 -11 13 -6 2
-11 -4 -11 -13z"/>
<path d="M3192 6118 c-29 -29 -2 -59 56 -60 46 0 82 10 82 23 0 16 -64 49 -95
49 -17 0 -36 -5 -43 -12z m86 -13 c29 -13 34 -18 22 -25 -8 -5 -34 -10 -57
-10 -35 0 -43 3 -43 18 0 36 20 40 78 17z"/>
<path d="M8737 6124 c-8 -8 1 -24 14 -24 5 0 9 7 9 15 0 15 -12 20 -23 9z"/>
<path d="M2918 6100 c-74 -40 -86 -88 -38 -163 27 -42 33 -47 67 -47 21 -1 63
-3 93 -5 30 -2 89 -6 130 -9 87 -7 246 -57 244 -78 -1 -7 -3 -20 -5 -28 -3
-11 3 -14 22 -12 74 7 4 -132 -71 -143 -56 -9 -85 -28 -85 -55 0 -24 3 -25 65
-25 93 -1 96 -2 133 -35 19 -16 40 -30 45 -30 6 0 16 -9 22 -20 6 -11 21 -20
35 -20 13 0 56 -12 95 -26 39 -15 73 -24 76 -21 3 3 -2 17 -11 31 -15 22 -15
26 -2 26 8 0 20 7 27 15 18 22 -3 64 -65 133 -39 43 -45 55 -35 67 18 22 26
19 79 -25 52 -44 70 -45 92 -4 7 14 24 31 37 38 l24 12 -37 32 c-19 18 -42 32
-50 32 -8 0 -31 11 -51 25 -20 14 -47 25 -59 25 -12 0 -29 7 -36 16 -11 14
-11 18 5 29 14 11 15 17 6 34 -14 28 -81 61 -121 61 -30 0 -31 1 -16 18 10 10
17 21 17 24 0 13 -32 17 -54 7 -21 -10 -32 -6 -84 31 -53 38 -65 42 -99 37
-21 -4 -43 -13 -49 -22 -13 -17 -27 -19 -52 -6 -9 5 -25 12 -34 15 -13 4 -18
16 -18 46 0 37 -2 40 -28 40 -15 0 -45 -9 -66 -19 -37 -19 -38 -19 -57 0 -24
24 -44 23 -91 -1z m98 -36 c9 -20 12 -45 8 -57 -6 -19 -9 -17 -20 18 l-14 40
4 -43 c5 -56 32 -98 51 -82 11 9 12 17 4 32 -15 28 -4 99 17 115 10 7 33 13
51 13 32 0 33 -1 33 -40 0 -24 5 -42 13 -44 6 -2 30 -9 51 -16 37 -12 41 -11
59 11 29 36 92 32 126 -9 35 -42 68 -53 104 -36 30 16 35 9 11 -17 -15 -17
-14 -18 12 -24 93 -20 148 -55 126 -77 -29 -29 5 -78 53 -78 11 0 37 -11 57
-25 20 -14 43 -25 51 -25 8 0 25 -9 38 -19 l24 -19 -27 -12 c-15 -7 -28 -22
-30 -34 -5 -33 -33 -30 -76 8 -44 41 -71 45 -96 17 -17 -19 -16 -21 26 -68 85
-92 97 -126 52 -144 l-27 -10 23 -24 c29 -31 25 -31 -42 0 -29 14 -68 25 -85
25 -21 0 -33 5 -33 13 0 7 -16 21 -35 30 -19 9 -35 21 -35 25 0 11 -66 41 -95
44 -11 1 -37 -2 -58 -6 -25 -6 -42 -5 -49 2 -21 21 11 40 78 47 60 7 63 9 58
30 -4 16 1 26 21 39 24 16 27 16 54 0 33 -19 64 -12 59 13 -2 13 -14 19 -39
21 -32 3 -37 7 -45 40 -7 29 -14 37 -30 35 -15 -2 -20 4 -19 25 0 25 -7 29
-99 60 -88 30 -113 33 -250 39 -87 3 -157 10 -165 17 -16 12 -50 84 -51 105 0
7 16 29 36 47 26 25 44 34 70 34 31 0 37 -4 50 -36z m24 -104 c0 -5 -4 -10
-10 -10 -5 0 -10 5 -10 10 0 6 5 10 10 10 6 0 10 -4 10 -10z m505 -290 c-3 -5
-13 -10 -21 -10 -8 0 -14 5 -14 10 0 6 9 10 21 10 11 0 17 -4 14 -10z"/>
<path d="M3590 5511 c0 -16 64 -60 91 -63 35 -4 30 22 -10 49 -34 23 -81 31
-81 14z m65 -18 c33 -16 46 -33 26 -33 -14 0 -71 34 -71 43 0 10 5 9 45 -10z"/>
<path d="M11262 6025 c-18 -8 -38 -14 -44 -12 -6 1 -13 -4 -15 -10 -7 -19 23
-16 67 7 55 28 76 26 89 -10 6 -18 17 -30 27 -30 10 0 26 -8 37 -17 16 -15 36
-17 139 -15 125 4 148 -3 148 -39 0 -30 38 -41 164 -49 85 -5 132 -12 158 -25
51 -25 72 -15 64 30 -4 20 -3 35 2 35 42 0 279 -43 326 -60 109 -37 181 -91
188 -139 4 -34 22 -37 36 -6 14 31 29 31 87 3 50 -24 58 -44 21 -54 -30 -7
-63 -42 -68 -72 l-3 -22 -40 27 c-22 14 -53 35 -68 46 -21 13 -38 17 -61 13
-28 -5 -34 -3 -45 20 -14 31 -22 26 -37 -24 l-10 -37 -62 3 c-74 3 -83 -14
-27 -47 36 -21 72 -82 60 -101 -4 -6 -23 -7 -43 -4 -47 7 -121 -20 -208 -77
-62 -40 -65 -41 -89 -25 -31 20 -100 14 -155 -14 -19 -10 -43 -21 -52 -24 -21
-6 -49 -48 -48 -73 1 -38 7 -73 13 -80 4 -3 7 -13 7 -21 0 -9 -3 -12 -7 -9
-13 13 -33 -16 -33 -49 0 -27 -4 -34 -19 -34 -25 0 -61 -45 -61 -76 0 -13 -5
-24 -10 -24 -6 0 -28 -19 -49 -41 l-38 -42 -12 34 c-7 19 -15 72 -18 119 -5
74 -3 91 16 128 12 23 34 48 49 56 15 8 47 35 72 61 25 26 69 65 97 86 48 36
83 82 83 109 0 16 -28 12 -42 -6 -7 -9 -26 -29 -42 -45 -15 -16 -23 -29 -17
-29 13 0 49 35 68 66 10 16 12 17 12 2 1 -9 -11 -31 -26 -48 -20 -25 -32 -31
-52 -27 -16 3 -33 -1 -43 -10 -17 -15 -18 -14 -18 3 0 11 6 26 12 32 19 19 -9
34 -52 28 -48 -7 -142 -74 -160 -113 -17 -38 -50 -43 -119 -18 -37 13 -49 13
-102 -1 -46 -12 -68 -13 -91 -5 -49 17 -70 13 -125 -21 -65 -41 -221 -175
-235 -201 -8 -17 -6 -23 13 -38 27 -21 39 -24 39 -10 0 5 -9 13 -20 16 -11 3
-20 13 -20 20 0 20 184 178 244 211 44 24 51 25 87 14 25 -9 54 -10 86 -5 55
9 82 9 170 -1 72 -7 101 -1 84 19 -8 10 -4 20 17 39 50 47 106 78 139 78 30 0
32 -2 24 -23 -13 -32 1 -51 30 -42 16 4 0 -16 -51 -65 -41 -39 -87 -83 -103
-98 -36 -35 -50 -92 -42 -161 8 -69 35 -171 45 -171 4 0 19 16 34 35 14 19 40
42 56 52 21 12 30 25 30 44 0 28 27 59 52 59 10 0 18 13 22 39 4 28 12 40 27
44 16 4 20 10 14 24 -27 65 -28 140 -3 115 16 -16 28 -15 28 3 0 8 -7 15 -16
15 -25 0 -6 18 44 41 55 25 156 37 166 20 12 -19 33 -13 93 26 76 49 146 74
208 76 43 2 50 5 53 24 5 33 -25 82 -64 105 -42 24 -38 35 7 19 18 -6 38 -11
45 -11 23 0 54 38 54 68 l1 27 15 -28 c15 -28 21 -29 70 -10 6 2 25 -7 42 -21
16 -15 34 -26 38 -26 5 0 20 -9 34 -20 34 -26 39 -25 51 10 6 17 29 42 52 57
22 16 42 34 45 41 2 7 -23 25 -64 44 l-67 31 -19 -23 c-10 -12 -20 -21 -21
-19 -2 2 -8 16 -15 31 -15 37 -103 93 -191 124 -69 24 -318 67 -333 57 -5 -2
-8 -22 -8 -44 0 -21 -2 -39 -5 -39 -3 0 -24 10 -47 21 -32 17 -66 22 -147 26
-128 5 -151 9 -151 27 0 8 -8 24 -18 37 -18 21 -25 22 -133 21 -99 -2 -120 1
-160 19 -25 12 -50 32 -55 43 -11 26 -57 31 -102 11z"/>
<path d="M5087 5994 c-8 -8 1 -24 14 -24 5 0 9 7 9 15 0 15 -12 20 -23 9z"/>
<path d="M12400 5967 c-14 -7 -25 -19 -25 -27 0 -12 13 -15 58 -14 62 1 83 13
74 38 -8 20 -71 21 -107 3z m90 -12 c0 -5 -23 -11 -52 -13 -34 -2 -49 0 -43 6
21 21 96 26 95 7z"/>
<path d="M12572 5969 c2 -6 8 -10 13 -10 5 0 11 4 13 10 2 6 -4 11 -13 11 -9
0 -15 -5 -13 -11z"/>
<path d="M1492 5939 c2 -6 8 -10 13 -10 5 0 11 4 13 10 2 6 -4 11 -13 11 -9 0
-15 -5 -13 -11z"/>
<path d="M5782 5939 c2 -6 8 -10 13 -10 5 0 11 4 13 10 2 6 -4 11 -13 11 -9 0
-15 -5 -13 -11z"/>
<path d="M5740 5910 c0 -5 4 -10 9 -10 6 0 13 5 16 10 3 6 -1 10 -9 10 -9 0
-16 -4 -16 -10z"/>
<path d="M8140 5905 c0 -8 11 -22 25 -31 38 -25 64 4 28 32 -24 18 -53 17 -53
-1z m46 -10 c16 -12 16 -14 3 -15 -9 0 -22 7 -29 15 -16 19 0 19 26 0z"/>
<path d="M6710 5895 c0 -9 5 -15 11 -13 6 2 11 8 11 13 0 5 -5 11 -11 13 -6 2
-11 -4 -11 -13z"/>
<path d="M4132 5854 c5 -25 35 -41 49 -27 18 18 3 43 -26 43 -19 0 -26 -5 -23
-16z m42 -3 c3 -4 3 -11 0 -14 -8 -8 -34 3 -34 14 0 11 27 12 34 0z"/>
<path d="M7786 5848 c-21 -30 -6 -46 29 -30 17 8 25 19 23 29 -5 27 -34 27
-52 1z m29 -14 c-23 -17 -32 -10 -15 11 7 8 17 12 23 8 6 -4 3 -11 -8 -19z"/>
<path d="M3215 5841 c-7 -12 12 -24 25 -16 11 7 4 25 -10 25 -5 0 -11 -4 -15
-9z"/>
<path d="M3300 5811 c0 -6 5 -13 10 -16 7 -4 6 -13 -1 -26 -15 -28 -4 -49 24
-49 47 0 63 43 22 62 -14 6 -25 17 -25 25 0 7 -7 13 -15 13 -8 0 -15 -4 -15
-9z m68 -58 c5 -16 -22 -27 -44 -19 -13 5 -14 9 -4 22 15 17 41 15 48 -3z"/>
<path d="M6580 5805 c0 -9 5 -15 11 -13 6 2 11 8 11 13 0 5 -5 11 -11 13 -6 2
-11 -4 -11 -13z"/>
<path d="M3235 5790 c-4 -6 -3 -16 3 -22 6 -6 12 -6 17 2 4 6 3 16 -3 22 -6 6
-12 6 -17 -2z"/>
<path d="M6525 5790 c-4 -6 -3 -16 3 -22 6 -6 12 -6 17 2 4 6 3 16 -3 22 -6 6
-12 6 -17 -2z"/>
<path d="M5395 5673 c-27 -3 -46 -12 -60 -29 -11 -13 -45 -32 -75 -42 -59 -18
-66 -33 -23 -44 15 -4 35 -18 45 -30 14 -19 26 -23 70 -23 60 0 167 38 204 72
l24 22 -27 40 c-30 43 -40 45 -158 34z m135 -27 c5 -13 14 -27 19 -31 20 -12
11 -25 -36 -49 -109 -54 -207 -64 -230 -21 -5 8 -19 18 -33 23 -24 9 -24 10
16 21 23 6 52 22 66 36 18 18 42 27 89 33 97 14 99 14 109 -12z"/>
<path d="M5231 5658 c-33 -17 -37 -34 -9 -41 27 -8 73 13 73 33 0 20 -34 23
-64 8z m49 -18 c-20 -13 -63 -13 -55 0 3 6 21 10 38 10 24 0 28 -3 17 -10z"/>
<path d="M6390 5535 c0 -9 5 -15 11 -13 6 2 11 8 11 13 0 5 -5 11 -11 13 -6 2
-11 -4 -11 -13z"/>
<path d="M9 5500 c-22 -14 9 -40 47 -40 34 0 52 14 34 25 -23 14 -68 22 -81
15z m61 -20 c12 -8 9 -10 -12 -10 -15 0 -30 5 -33 10 -8 13 25 13 45 0z"/>
<path d="M3326 5503 c-11 -11 -6 -23 9 -23 8 0 15 4 15 9 0 13 -16 22 -24 14z"/>
<path d="M3260 5474 c0 -9 5 -14 12 -12 18 6 21 28 4 28 -9 0 -16 -7 -16 -16z"/>
<path d="M3081 5436 c-7 -8 -10 -20 -7 -25 9 -13 58 8 53 23 -6 17 -33 18 -46
2z m29 -6 c0 -5 -5 -10 -11 -10 -5 0 -7 5 -4 10 3 6 8 10 11 10 2 0 4 -4 4
-10z"/>
<path d="M3207 5443 c-13 -13 -7 -53 8 -53 10 0 15 10 15 30 0 29 -9 38 -23
23z"/>
<path d="M5790 5407 c0 -14 -3 -32 -6 -41 -4 -10 -1 -16 9 -16 8 0 17 13 21
30 8 44 8 45 -8 48 -11 2 -16 -4 -16 -21z"/>
<path d="M7138 5389 c-10 -5 -18 -21 -18 -33 0 -13 8 -33 18 -45 14 -17 23
-19 52 -13 46 10 49 34 12 72 -33 33 -39 34 -64 19z m48 -17 c10 -6 34 -45 34
-54 0 -2 -16 -4 -35 -5 -37 -1 -62 24 -51 53 6 15 34 18 52 6z"/>
<path d="M5996 5341 c-9 -14 5 -42 18 -38 15 5 14 39 -1 44 -6 2 -14 0 -17 -6z"/>
<path d="M3622 5319 c2 -6 8 -10 13 -10 5 0 11 4 13 10 2 6 -4 11 -13 11 -9 0
-15 -5 -13 -11z"/>
<path d="M6752 5319 c2 -6 8 -10 13 -10 5 0 11 4 13 10 2 6 -4 11 -13 11 -9 0
-15 -5 -13 -11z"/>
<path d="M147 5314 c-8 -8 1 -24 14 -24 5 0 9 7 9 15 0 15 -12 20 -23 9z"/>
<path d="M5905 5239 c-48 -42 -63 -75 -63 -132 1 -32 7 -52 20 -64 14 -12 17
-24 13 -45 -7 -32 10 -39 18 -8 6 24 22 26 31 5 8 -21 -3 -43 -24 -50 -18 -6
-35 -59 -24 -76 3 -5 15 -9 27 -9 18 0 15 -4 -15 -22 -47 -27 -54 -63 -10 -54
23 5 165 25 184 26 18 0 48 46 48 72 0 21 -6 31 -24 38 -16 6 -27 20 -31 40
-4 17 -27 56 -52 87 -42 51 -44 57 -33 83 15 36 5 53 -26 46 -30 -8 -30 -4 1
42 14 20 25 40 25 44 0 18 -31 6 -65 -23z m26 -20 c-29 -47 -27 -59 9 -59 l31
0 -16 -30 c-16 -31 -16 -31 28 -79 24 -27 49 -68 56 -90 8 -27 21 -46 37 -53
29 -14 30 -27 4 -60 -16 -21 -31 -26 -87 -32 -37 -4 -84 -9 -103 -12 l-35 -5
39 23 c50 29 55 44 17 53 -30 6 -30 7 -16 35 8 15 21 30 30 33 27 11 11 87
-19 87 -21 0 -49 37 -42 56 3 9 2 22 -4 29 -15 18 4 63 47 107 43 45 52 43 24
-3z"/>
<path d="M307 5224 c-8 -8 1 -24 14 -24 5 0 9 7 9 15 0 15 -12 20 -23 9z"/>
<path d="M5797 5224 c-8 -8 1 -24 14 -24 5 0 9 7 9 15 0 15 -12 20 -23 9z"/>
<path d="M6840 5215 c0 -9 5 -15 11 -13 6 2 11 8 11 13 0 5 -5 11 -11 13 -6 2
-11 -4 -11 -13z"/>
<path d="M623 5189 c-30 -19 -46 -59 -23 -59 13 0 80 60 80 71 0 15 -23 10
-57 -12z m12 -24 c-16 -13 -31 -22 -34 -19 -3 3 8 16 24 29 17 13 32 21 35 18
3 -3 -8 -15 -25 -28z"/>
<path d="M1220 5175 c0 -9 5 -15 11 -13 6 2 11 8 11 13 0 5 -5 11 -11 13 -6 2
-11 -4 -11 -13z"/>
<path d="M5792 5158 c6 -18 28 -21 28 -4 0 9 -7 16 -16 16 -9 0 -14 -5 -12
-12z"/>
<path d="M6690 5150 c0 -15 5 -20 18 -18 9 2 17 10 17 18 0 8 -8 16 -17 18
-13 2 -18 -3 -18 -18z"/>
<path d="M30 5115 c0 -9 5 -15 11 -13 6 2 11 8 11 13 0 5 -5 11 -11 13 -6 2
-11 -4 -11 -13z"/>
<path d="M560 5100 c0 -5 7 -10 15 -10 8 0 15 5 15 10 0 6 -7 10 -15 10 -8 0
-15 -4 -15 -10z"/>
<path d="M3202 5088 c6 -18 28 -21 28 -4 0 9 -7 16 -16 16 -9 0 -14 -5 -12
-12z"/>
<path d="M1320 5055 c0 -17 5 -25 13 -22 6 2 12 12 12 22 0 10 -6 20 -12 23
-8 2 -13 -6 -13 -23z"/>
<path d="M535 5061 c-7 -12 12 -24 25 -16 11 7 4 25 -10 25 -5 0 -11 -4 -15
-9z"/>
<path d="M11910 5055 c0 -9 5 -15 11 -13 6 2 11 8 11 13 0 5 -5 11 -11 13 -6
2 -11 -4 -11 -13z"/>
<path d="M6443 5044 c-8 -21 13 -42 28 -27 13 13 5 43 -11 43 -6 0 -13 -7 -17
-16z"/>
<path d="M5752 5038 c-7 -7 -12 -17 -12 -23 0 -7 -10 -16 -22 -22 -18 -8 -22
-19 -25 -71 -4 -78 7 -84 78 -45 54 29 79 66 79 117 0 43 -68 74 -98 44z m59
-8 c14 -8 19 -21 19 -51 0 -47 -26 -77 -91 -102 l-41 -16 7 32 c3 18 6 44 6
60 0 17 5 27 15 27 8 0 17 8 21 18 15 41 31 49 64 32z"/>
<path d="M6562 5029 c2 -6 8 -10 13 -10 5 0 11 4 13 10 2 6 -4 11 -13 11 -9 0
-15 -5 -13 -11z"/>
<path d="M237 5023 c-12 -11 -8 -23 8 -23 8 0 15 7 15 15 0 16 -12 20 -23 8z"/>
<path d="M11982 4999 c2 -6 8 -10 13 -10 5 0 11 4 13 10 2 6 -4 11 -13 11 -9
0 -15 -5 -13 -11z"/>
<path d="M134 4989 c-8 -14 11 -33 25 -25 16 10 13 36 -3 36 -8 0 -18 -5 -22
-11z"/>
<path d="M1317 4987 c-3 -8 -2 -19 2 -25 10 -16 35 3 28 22 -8 19 -23 21 -30
3z"/>
<path d="M76 4953 c-11 -11 -6 -23 9 -23 8 0 15 4 15 9 0 13 -16 22 -24 14z"/>
<path d="M3130 4922 c0 -19 18 -42 32 -42 12 0 9 35 -4 48 -17 17 -28 15 -28
-6z m30 -25 c0 -5 -4 -5 -10 -2 -5 3 -10 14 -10 23 0 15 2 15 10 2 5 -8 10
-19 10 -23z"/>
<path d="M12152 4928 c6 -18 28 -21 28 -4 0 9 -7 16 -16 16 -9 0 -14 -5 -12
-12z"/>
<path d="M1334 4916 c-7 -18 31 -106 45 -106 14 0 14 53 0 84 -14 30 -38 41
-45 22z m45 -76 c0 -9 -6 -4 -14 10 -8 14 -14 34 -14 45 1 15 4 13 14 -10 8
-16 14 -37 14 -45z"/>
<path d="M11542 4803 c2 -10 10 -18 18 -18 22 0 18 29 -3 33 -14 3 -18 -1 -15
-15z"/>
<path d="M2892 4781 c-18 -11 -11 -45 9 -49 9 -2 19 5 23 14 8 22 -14 46 -32
35z m28 -21 c0 -5 -7 -10 -15 -10 -8 0 -15 5 -15 10 0 6 7 10 15 10 8 0 15 -4
15 -10z"/>
<path d="M3989 4742 c-48 -44 -51 -50 -39 -71 10 -20 17 -23 53 -18 23 3 53 9
66 13 18 5 22 4 17 -5 -5 -7 -5 -24 -1 -38 l6 -26 23 22 c15 15 26 19 31 12 9
-16 25 -13 25 4 0 8 -7 15 -15 15 -10 0 -15 10 -15 30 0 36 -38 65 -75 58 -28
-6 -32 3 -10 22 8 7 15 16 15 21 0 21 -32 6 -81 -39z m53 16 c-23 -23 -14 -41
17 -35 21 4 37 1 52 -12 21 -17 22 -21 10 -50 -16 -36 -28 -40 -27 -8 1 24
-16 27 -86 13 -59 -12 -61 15 -7 70 23 24 45 41 48 39 2 -3 -1 -11 -7 -17z"/>
<path d="M3793 4753 c-21 -8 -15 -22 16 -38 42 -21 81 -3 49 23 -18 13 -50 21
-65 15z m52 -23 c8 -13 -15 -13 -35 0 -12 8 -11 10 7 10 12 0 25 -4 28 -10z"/>
<path d="M11517 4744 c-8 -8 1 -24 14 -24 5 0 9 7 9 15 0 15 -12 20 -23 9z"/>
<path d="M2865 4669 c-33 -23 -60 -46 -60 -53 0 -7 31 -13 87 -16 49 -3 93
-11 100 -18 9 -9 9 -12 -4 -12 -9 0 -26 -12 -37 -26 -17 -22 -19 -35 -14 -92
6 -72 26 -109 43 -82 5 8 10 26 10 40 0 14 5 42 11 63 17 63 69 99 69 48 0
-20 75 -97 83 -84 2 4 8 23 12 40 3 18 12 31 18 30 14 -3 22 32 9 45 -6 6 -36
16 -69 24 -40 9 -63 20 -73 36 -27 43 -88 98 -106 98 -11 0 -46 -19 -79 -41z
m123 -3 c13 -11 32 -35 43 -52 16 -26 33 -36 89 -53 39 -12 70 -24 70 -26 0
-3 -9 -14 -20 -25 -11 -11 -20 -29 -20 -40 0 -11 -2 -20 -5 -20 -12 0 -55 53
-55 68 0 23 -19 42 -42 42 -25 0 -53 -50 -68 -121 -7 -33 -16 -56 -21 -52 -4
4 -9 37 -11 71 -3 67 -1 71 58 109 17 10 17 13 4 22 -26 18 -83 31 -139 31
l-53 0 58 39 c61 41 74 42 112 7z"/>
<path d="M11470 4695 c0 -8 7 -15 15 -15 8 0 15 7 15 15 0 8 -7 15 -15 15 -8
0 -15 -7 -15 -15z"/>
<path d="M3311 4651 c-8 -5 -10 -14 -7 -20 9 -13 33 -15 40 -2 9 14 -18 31
-33 22z"/>
<path d="M11430 4634 c0 -9 5 -14 12 -12 18 6 21 28 4 28 -9 0 -16 -7 -16 -16z"/>
<path d="M4030 4625 c0 -9 5 -15 11 -13 6 2 11 8 11 13 0 5 -5 11 -11 13 -6 2
-11 -4 -11 -13z"/>
<path d="M7805 4592 c-71 -38 -80 -63 -55 -144 11 -36 30 -81 43 -100 22 -32
23 -37 11 -79 -20 -66 -17 -84 17 -113 33 -28 86 -34 134 -16 25 10 26 12 19
72 -3 35 -13 71 -22 81 -14 15 -13 17 7 17 29 0 37 25 16 56 -17 26 -35 28
-43 4 -3 -8 0 -10 7 -6 11 7 41 -10 41 -23 0 -4 -14 -12 -32 -19 l-32 -12 20
-22 c14 -16 21 -41 23 -79 2 -52 1 -57 -21 -62 -46 -13 -78 -7 -109 21 l-31
28 17 61 c17 61 17 62 -3 88 -26 32 -65 147 -60 177 4 27 56 64 111 79 48 13
67 6 67 -24 0 -17 -8 -25 -32 -32 -18 -6 -33 -17 -33 -25 0 -8 -4 -21 -9 -28
-5 -8 1 -27 17 -50 14 -20 28 -52 32 -69 4 -18 11 -33 17 -33 6 0 7 7 4 16 -3
9 -6 21 -6 28 0 7 -11 30 -26 51 -32 48 -26 86 16 102 30 11 37 32 24 67 -10
25 -72 19 -129 -12z"/>
<path d="M3205 4590 c-4 -6 -3 -16 3 -22 6 -6 12 -6 17 2 4 6 3 16 -3 22 -6 6
-12 6 -17 -2z"/>
<path d="M11345 4590 c-4 -6 -3 -16 3 -22 6 -6 12 -6 17 2 4 6 3 16 -3 22 -6
6 -12 6 -17 -2z"/>
<path d="M8158 4559 c-19 -14 -28 -30 -28 -49 0 -31 22 -55 44 -47 21 8 48 64
44 90 -4 29 -27 31 -60 6z m42 -22 c0 -40 -29 -74 -48 -55 -17 17 -15 32 9 62
27 35 39 33 39 -7z"/>
<path d="M11112 4516 c23 -22 48 -36 63 -36 17 0 23 -4 19 -14 -6 -16 -96 -66
-118 -66 -8 0 -19 -8 -25 -17 -8 -16 -11 -14 -21 12 -10 27 -9 32 15 51 22 18
26 27 22 60 l-4 39 -1 -38 c-2 -29 -7 -40 -27 -49 -29 -13 -34 -57 -9 -82 20
-20 34 -20 34 -1 0 9 10 15 26 15 14 0 37 9 51 20 14 11 32 20 39 20 13 0 34
30 34 49 0 6 -12 11 -26 11 -14 0 -45 14 -68 31 l-41 31 37 -36z"/>
<path d="M11286 4541 c-3 -5 0 -14 8 -20 10 -8 16 -8 25 2 6 8 8 17 4 20 -9
10 -31 9 -37 -2z"/>
<path d="M11242 4509 c2 -6 8 -10 13 -10 5 0 11 4 13 10 2 6 -4 11 -13 11 -9
0 -15 -5 -13 -11z"/>
<path d="M3262 4465 c-83 -39 -162 -91 -162 -106 0 -25 35 -18 93 19 34 22 74
44 89 47 29 8 78 48 78 65 0 17 -22 12 -98 -25z m78 10 c0 -3 -32 -20 -71 -40
-38 -19 -83 -44 -99 -55 -36 -26 -63 -26 -30 0 27 22 177 100 191 100 5 0 9
-2 9 -5z"/>
<path d="M11230 4445 c0 -8 5 -15 10 -15 6 0 10 7 10 15 0 8 -4 15 -10 15 -5
0 -10 -7 -10 -15z"/>
<path d="M6360 4401 c0 -12 6 -21 16 -21 9 0 14 7 12 17 -5 25 -28 28 -28 4z"/>
<path d="M6351 4327 c-6 -6 -11 -26 -11 -44 0 -25 4 -33 18 -33 30 0 56 35 43
58 -13 25 -35 34 -50 19z m34 -37 c0 -13 -6 -25 -12 -27 -16 -6 -27 21 -19 43
9 23 31 11 31 -16z"/>
<path d="M11010 4308 c-5 -13 -12 -40 -15 -61 -6 -34 -9 -38 -29 -33 -28 7
-40 -3 -25 -20 19 -23 2 -47 -29 -41 -23 5 -30 1 -44 -23 -12 -22 -27 -30 -69
-39 -32 -7 -70 -24 -92 -42 -28 -23 -44 -29 -63 -25 -29 8 -30 -3 -4 -46 11
-18 20 -50 20 -70 0 -65 22 -59 64 17 15 29 29 41 48 43 15 2 32 10 39 19 11
12 9 18 -11 34 -14 10 -21 19 -17 19 16 0 52 -23 66 -42 13 -19 14 -19 37 3
15 14 41 24 80 28 l57 6 22 80 c11 44 27 91 34 104 14 26 7 91 -12 103 -23 14
-47 8 -57 -14z m51 -9 c12 -23 11 -32 -24 -164 l-24 -90 -54 -3 c-36 -2 -61
-9 -75 -23 -20 -19 -21 -19 -44 6 -28 30 -49 31 -93 8 l-32 -18 35 -3 c19 -1
42 -5 50 -8 27 -9 -17 -26 -50 -19 -74 16 -51 63 46 91 31 9 67 27 79 40 13
14 29 22 37 19 19 -8 52 30 44 50 -4 13 -1 15 13 10 24 -7 36 13 45 78 8 51
27 62 47 26z m-351 -324 c9 -24 -10 -87 -27 -93 -9 -2 -13 9 -13 35 0 22 -7
48 -15 59 -21 28 -19 32 16 25 19 -4 35 -15 39 -26z"/>
<path d="M6174 4286 c-10 -8 -16 -17 -13 -20 8 -8 69 14 69 25 0 14 -34 11
-56 -5z"/>
<path d="M6100 4236 c0 -9 7 -16 16 -16 9 0 14 5 12 12 -6 18 -28 21 -28 4z"/>
<path d="M6767 4184 c-8 -8 1 -24 14 -24 5 0 9 7 9 15 0 15 -12 20 -23 9z"/>
<path d="M6466 4143 c-11 -11 -6 -23 9 -23 8 0 15 4 15 9 0 13 -16 22 -24 14z"/>
<path d="M6986 4143 c-11 -11 -6 -23 9 -23 8 0 15 4 15 9 0 13 -16 22 -24 14z"/>
<path d="M6910 4114 c0 -17 22 -14 28 4 2 7 -3 12 -12 12 -9 0 -16 -7 -16 -16z"/>
<path d="M6537 4083 c-12 -11 -8 -23 8 -23 8 0 15 7 15 15 0 16 -12 20 -23 8z"/>
<path d="M7202 4073 c4 -20 27 -27 47 -14 19 12 4 31 -25 31 -19 0 -25 -5 -22
-17z m35 1 c-3 -3 -12 -4 -19 -1 -8 3 -5 6 6 6 11 1 17 -2 13 -5z"/>
<path d="M6915 4070 c-9 -15 4 -30 25 -30 24 0 36 20 19 31 -19 12 -36 11 -44
-1z m32 -16 c-3 -3 -12 -4 -19 -1 -8 3 -5 6 6 6 11 1 17 -2 13 -5z"/>
<path d="M6477 4064 c-8 -8 1 -24 14 -24 5 0 9 7 9 15 0 15 -12 20 -23 9z"/>
<path d="M10536 3983 c-11 -11 -6 -23 9 -23 8 0 15 4 15 9 0 13 -16 22 -24 14z"/>
<path d="M1872 3958 c9 -7 30 -48 48 -90 17 -42 38 -82 46 -89 10 -8 13 -21 9
-36 -4 -18 4 -35 35 -72 22 -26 40 -53 40 -60 0 -42 98 -117 122 -93 9 9 6 18
-15 40 -15 15 -27 31 -27 35 0 4 -15 30 -33 59 -54 86 -109 210 -98 221 7 7
16 -1 28 -22 18 -32 164 -252 229 -345 24 -34 34 -59 34 -86 0 -52 39 -84 196
-161 100 -50 126 -59 150 -52 40 10 41 10 145 -52 51 -30 102 -55 112 -55 32
0 97 -73 97 -108 0 -33 23 -61 35 -42 5 7 17 2 34 -16 16 -15 51 -35 79 -44
49 -16 51 -16 71 3 41 41 81 -18 81 -122 0 -52 -5 -66 -37 -112 -68 -101 -101
-207 -71 -237 9 -9 7 -16 -7 -32 -18 -20 -18 -24 -3 -63 111 -292 140 -363
153 -383 8 -12 54 -55 102 -95 49 -40 92 -75 96 -79 8 -7 -27 -575 -39 -635
-3 -16 -19 -61 -34 -100 -38 -94 -49 -217 -34 -358 6 -57 5 -59 -15 -52 -27 8
-27 -5 -1 -28 21 -17 27 -52 11 -61 -5 -3 -14 1 -21 9 -18 22 -27 19 -38 -13
-9 -27 -6 -32 41 -73 49 -42 50 -44 26 -49 -22 -5 -25 -12 -30 -75 -3 -39 -10
-78 -14 -87 -4 -11 -3 -18 3 -18 14 0 19 20 27 103 6 57 9 67 26 67 10 0 19 4
19 10 0 16 -71 90 -87 90 -11 0 -11 4 -2 22 11 21 12 21 26 2 14 -18 15 -18
27 -1 23 30 29 135 11 199 -10 41 -12 65 -5 83 6 15 10 53 10 86 0 42 8 78 26
122 43 101 44 109 67 436 l23 314 -21 20 c-11 11 -54 47 -95 80 -41 33 -83 71
-92 86 -9 14 -35 77 -58 140 -23 62 -58 150 -77 195 l-34 81 26 22 26 22 -21
21 c-15 15 -18 27 -14 52 9 48 37 108 77 167 20 29 39 68 43 88 13 67 -32 193
-69 193 -6 0 -20 -9 -32 -20 -18 -17 -27 -19 -46 -11 -13 5 -37 12 -52 16 -16
3 -32 16 -39 31 -9 19 -17 24 -34 20 -18 -5 -23 -1 -28 27 -9 48 -68 113 -108
121 -18 3 -75 31 -125 61 -84 50 -96 54 -135 49 -38 -5 -56 0 -153 50 -147 74
-185 106 -185 156 0 27 -10 51 -35 86 -85 119 -215 318 -215 330 0 18 -39 44
-56 37 -8 -3 -14 -11 -14 -18 0 -32 122 -266 163 -312 11 -13 18 -26 14 -29
-11 -12 -74 44 -87 78 -8 18 -29 52 -48 75 -21 27 -32 49 -28 59 3 9 -3 29
-15 46 -12 16 -36 64 -53 106 -22 54 -38 78 -51 80 -18 3 -19 3 -3 -10z"/>
<path d="M3727 3953 c-12 -11 -8 -23 8 -23 8 0 15 7 15 15 0 16 -12 20 -23 8z"/>
<path d="M5432 3929 c2 -6 8 -10 13 -10 5 0 11 4 13 10 2 6 -4 11 -13 11 -9 0
-15 -5 -13 -11z"/>
<path d="M10592 3929 c2 -6 8 -10 13 -10 5 0 11 4 13 10 2 6 -4 11 -13 11 -9
0 -15 -5 -13 -11z"/>
<path d="M5407 3764 c-8 -8 1 -24 14 -24 5 0 9 7 9 15 0 15 -12 20 -23 9z"/>
<path d="M5535 3750 c-4 -6 -3 -16 3 -22 6 -6 12 -6 17 2 4 6 3 16 -3 22 -6 6
-12 6 -17 -2z"/>
<path d="M10635 3750 c-4 -6 -3 -16 3 -22 6 -6 12 -6 17 2 4 6 3 16 -3 22 -6
6 -12 6 -17 -2z"/>
<path d="M5460 3725 c0 -8 7 -15 15 -15 8 0 15 7 15 15 0 8 -7 15 -15 15 -8 0
-15 -7 -15 -15z"/>
<path d="M3247 3704 c-8 -8 1 -24 14 -24 5 0 9 7 9 15 0 15 -12 20 -23 9z"/>
<path d="M5402 3698 c6 -18 28 -21 28 -4 0 9 -7 16 -16 16 -9 0 -14 -5 -12
-12z"/>
<path d="M3306 3693 c-11 -11 -6 -23 9 -23 8 0 15 4 15 9 0 13 -16 22 -24 14z"/>
<path d="M10572 3688 c-14 -14 -16 -48 -3 -48 5 0 17 7 26 16 12 12 13 19 4
30 -14 17 -12 17 -27 2z m10 -30 c-7 -7 -12 -8 -12 -2 0 14 12 26 19 19 2 -3
-1 -11 -7 -17z"/>
<path d="M7970 3635 c0 -9 5 -15 11 -13 6 2 11 8 11 13 0 5 -5 11 -11 13 -6 2
-11 -4 -11 -13z"/>
<path d="M3247 3634 c-8 -8 1 -24 14 -24 5 0 9 7 9 15 0 15 -12 20 -23 9z"/>
<path d="M3320 3625 c0 -9 5 -15 11 -13 6 2 11 8 11 13 0 5 -5 11 -11 13 -6 2
-11 -4 -11 -13z"/>
<path d="M10330 3590 c-34 -34 -23 -131 13 -117 15 6 27 50 27 103 0 39 -11
43 -40 14z m20 -50 c-5 -54 -23 -72 -28 -29 -3 28 13 79 26 79 4 0 5 -23 2
-50z"/>
<path d="M10490 3595 c0 -9 5 -15 11 -13 6 2 11 8 11 13 0 5 -5 11 -11 13 -6
2 -11 -4 -11 -13z"/>
<path d="M3276 3593 c-11 -11 -6 -23 9 -23 8 0 15 4 15 9 0 13 -16 22 -24 14z"/>
<path d="M3350 3585 c0 -9 5 -15 11 -13 6 2 11 8 11 13 0 5 -5 11 -11 13 -6 2
-11 -4 -11 -13z"/>
<path d="M10436 3593 c-11 -11 -6 -23 9 -23 8 0 15 4 15 9 0 13 -16 22 -24 14z"/>
<path d="M3320 3537 c0 -8 13 -17 32 -21 54 -11 50 16 -4 29 -21 5 -28 3 -28
-8z"/>
<path d="M3078 3514 c-16 -8 -28 -17 -28 -19 0 -2 14 -11 30 -20 17 -9 30 -23
30 -32 0 -13 3 -14 12 -5 8 8 8 15 -2 27 -22 26 18 18 96 -19 47 -22 73 -41
77 -55 3 -14 13 -21 30 -21 38 0 79 18 74 33 -9 27 -221 127 -269 127 -13 -1
-35 -8 -50 -16z m200 -54 c56 -27 102 -54 102 -60 0 -5 -17 -10 -38 -10 -27 0
-41 6 -50 21 -20 31 -129 79 -182 79 -33 0 -41 3 -30 10 35 23 96 10 198 -40z"/>
<path d="M3420 3495 c0 -9 5 -15 11 -13 6 2 11 8 11 13 0 5 -5 11 -11 13 -6 2
-11 -4 -11 -13z"/>
<path d="M395 3490 c-4 -6 -3 -16 3 -22 6 -6 12 -6 17 2 4 6 3 16 -3 22 -6 6
-12 6 -17 -2z"/>
<path d="M3482 3479 c2 -6 8 -10 13 -10 5 0 11 4 13 10 2 6 -4 11 -13 11 -9 0
-15 -5 -13 -11z"/>
<path d="M435 3460 c-4 -7 -3 -16 3 -22 14 -14 45 -2 40 15 -6 16 -34 21 -43
7z"/>
<path d="M2948 3458 c13 -16 6 -70 -22 -161 -9 -26 -13 -54 -10 -61 3 -8 29
-16 63 -19 32 -4 70 -11 85 -17 l27 -10 -7 -90 -7 -90 42 -41 c27 -27 46 -39
57 -35 9 3 32 9 53 12 31 5 43 1 69 -21 37 -31 46 -28 63 23 14 45 28 64 41
56 5 -3 27 8 49 26 46 36 57 34 36 -7 -17 -32 -7 -73 18 -73 10 0 15 10 15 30
0 17 4 30 10 30 5 0 15 11 23 25 l13 26 19 -21 c10 -11 36 -23 57 -26 21 -4
41 -11 44 -15 3 -5 39 -9 80 -9 53 0 74 -4 74 -13 0 -15 146 -160 177 -176 12
-6 34 -11 49 -11 68 0 154 -70 154 -126 0 -12 7 -27 15 -34 21 -17 19 -23 -16
-61 -33 -36 -63 -88 -55 -96 3 -3 27 11 54 31 27 20 55 36 62 36 24 0 4 -35
-28 -49 -39 -18 -37 -35 5 -39 23 -2 40 5 66 27 19 17 42 31 52 31 9 0 40 -18
67 -40 48 -38 61 -43 159 -55 31 -4 62 -18 100 -46 70 -52 89 -75 89 -108 0
-39 -41 -119 -94 -184 l-47 -58 -9 -122 c-8 -123 -27 -195 -69 -263 -15 -25
-28 -33 -63 -38 -41 -6 -78 -26 -180 -98 l-48 -33 3 -60 c2 -56 -2 -67 -53
-160 -60 -108 -114 -171 -157 -181 -24 -6 -37 -3 -95 21 -22 9 -25 -17 -4 -34
23 -19 48 -80 41 -101 -8 -26 -46 -45 -118 -60 -49 -10 -61 -17 -77 -43 -29
-49 -39 -57 -71 -57 -39 0 -47 -24 -21 -60 l21 -28 -24 -16 c-16 -11 -25 -26
-25 -43 0 -18 -12 -37 -35 -59 -43 -39 -44 -66 -5 -106 17 -16 30 -32 30 -35
0 -2 -16 -24 -35 -47 -19 -24 -35 -46 -35 -49 0 -3 -11 -23 -25 -43 -14 -20
-25 -43 -25 -50 0 -16 -61 -102 -72 -103 -5 -1 -8 8 -8 19 0 21 -52 60 -80 60
-8 0 -1 -7 15 -15 37 -19 55 -42 48 -61 -7 -19 31 -18 47 1 16 19 30 10 30
-21 0 -20 -5 -24 -30 -24 -20 0 -30 -5 -30 -15 0 -17 30 -35 62 -35 13 -1 34
-7 47 -14 29 -16 76 -4 86 21 8 23 -89 113 -123 113 l-25 0 20 22 c11 13 24
34 28 48 7 25 21 50 90 153 21 31 36 58 34 60 -2 2 -16 10 -30 19 -15 9 -29
29 -31 43 -4 21 1 31 28 51 22 17 36 38 40 60 4 21 15 39 28 46 11 6 23 12 25
14 2 2 -8 17 -23 34 -32 38 -33 54 -4 47 31 -9 74 18 86 53 12 34 13 34 94 50
92 18 135 80 93 136 -22 29 -18 34 26 34 79 0 126 47 214 215 44 84 47 94 41
142 l-6 53 57 36 c32 21 70 45 85 56 15 10 50 23 78 29 45 9 53 16 77 56 41
70 53 118 68 254 13 127 13 127 56 181 89 112 113 210 62 254 -119 102 -117
101 -194 108 -83 9 -90 11 -148 61 -24 19 -51 35 -62 35 -10 0 -34 -16 -53
-35 -20 -20 -45 -35 -58 -35 -22 1 -22 1 4 16 39 21 54 52 34 72 -14 14 -19
13 -56 -11 -29 -20 -40 -23 -40 -13 0 16 55 66 72 66 6 0 3 8 -6 19 -9 10 -22
36 -28 57 -20 75 -115 144 -196 144 -25 0 -141 101 -181 157 -15 21 -37 37
-62 43 -21 6 -41 15 -44 20 -3 6 -11 10 -18 10 -8 0 -8 -3 1 -12 7 -7 12 -16
12 -20 0 -11 -36 -10 -58 1 -9 6 -29 12 -44 15 -14 3 -40 18 -58 32 -17 15
-32 25 -33 23 -2 -2 -8 -16 -15 -31 -6 -16 -18 -28 -27 -28 -18 0 -19 12 -3
28 8 8 9 15 2 22 -7 7 -24 1 -52 -20 -23 -16 -50 -30 -61 -30 -22 0 -49 -37
-57 -80 l-6 -29 -34 26 c-31 23 -39 25 -98 18 -63 -6 -64 -6 -86 25 -18 26
-22 44 -21 101 0 39 3 80 7 93 7 29 -29 47 -114 54 -34 2 -64 8 -66 11 -3 4 4
31 15 61 25 71 30 161 9 168 -12 4 -13 3 -2 -10z m562 -486 c0 -7 -4 -10 -10
-7 -5 3 -10 16 -10 28 0 18 2 19 10 7 5 -8 10 -21 10 -28z m129 -2857 c17 -20
31 -40 31 -45 0 -15 -41 -23 -64 -12 -11 6 -38 13 -58 17 -43 7 -52 25 -13 25
21 0 25 5 25 28 0 16 3 32 6 35 10 10 38 -9 73 -48z"/>
<path d="M3450 3435 c0 -9 5 -15 11 -13 6 2 11 8 11 13 0 5 -5 11 -11 13 -6 2
-11 -4 -11 -13z"/>
<path d="M516 3398 c8 -55 19 -67 41 -45 16 16 15 18 -8 43 -13 14 -23 29 -21
32 2 4 -1 8 -8 10 -7 3 -8 -10 -4 -40z m34 -28 c0 -5 -4 -10 -10 -10 -5 0 -10
5 -10 10 0 6 5 10 10 10 6 0 10 -4 10 -10z"/>
<path d="M9904 3375 c-28 -43 15 -65 51 -25 15 16 15 22 5 35 -18 22 -37 19
-56 -10z m46 -5 c0 -5 -9 -14 -20 -20 -15 -8 -20 -8 -20 3 0 8 3 17 7 20 10
10 33 8 33 -3z"/>
<path d="M3446 3351 c-19 -20 -26 -35 -20 -41 12 -12 77 -15 142 -6 42 6 52
12 50 24 -4 21 -44 40 -99 48 -40 5 -47 3 -73 -25z m127 -2 c20 -5 37 -14 37
-19 0 -11 -144 -25 -160 -15 -8 5 -6 13 6 26 19 21 60 24 117 8z"/>
<path d="M3665 3330 c-4 -7 -3 -16 3 -22 14 -14 45 -2 40 15 -6 16 -34 21 -43
7z"/>
<path d="M10334 3329 c-23 -8 -34 -45 -34 -116 0 -33 6 -50 25 -68 13 -14 30
-25 38 -25 24 0 55 -44 72 -102 9 -32 20 -58 25 -58 15 0 23 21 11 33 -17 17
-13 34 9 40 11 3 20 10 20 16 0 7 -29 43 -65 81 -63 67 -76 92 -54 105 5 4 14
18 20 32 17 45 -21 80 -67 62z m54 -36 c2 -12 -7 -35 -19 -52 l-22 -29 21 -29
c11 -15 43 -50 71 -78 28 -27 51 -54 51 -59 0 -6 -5 -5 -12 2 -9 9 -14 7 -24
-6 -12 -15 -13 -15 -14 7 0 26 -60 91 -83 91 -40 0 -57 68 -36 143 9 33 14 38
37 35 19 -2 28 -10 30 -25z"/>
<path d="M3260 3306 c0 -8 6 -16 13 -19 17 -6 49 12 42 24 -10 15 -55 11 -55
-5z m37 -2 c-3 -3 -12 -4 -19 -1 -8 3 -5 6 6 6 11 1 17 -2 13 -5z"/>
<path d="M3740 3296 c0 -9 7 -16 16 -16 9 0 14 5 12 12 -6 18 -28 21 -28 4z"/>
<path d="M3012 3278 c6 -18 28 -21 28 -4 0 9 -7 16 -16 16 -9 0 -14 -5 -12
-12z"/>
<path d="M3797 3284 c-8 -8 1 -24 14 -24 5 0 9 7 9 15 0 15 -12 20 -23 9z"/>
<path d="M3857 3273 c-12 -11 -8 -23 8 -23 8 0 15 7 15 15 0 16 -12 20 -23 8z"/>
<path d="M5147 3243 c-12 -11 -8 -23 8 -23 8 0 15 7 15 15 0 16 -12 20 -23 8z"/>
<path d="M5232 3219 c2 -6 8 -10 13 -10 5 0 11 4 13 10 2 6 -4 11 -13 11 -9 0
-15 -5 -13 -11z"/>
<path d="M3857 3214 c-8 -8 1 -24 14 -24 5 0 9 7 9 15 0 15 -12 20 -23 9z"/>
<path d="M11215 3200 c-4 -6 -3 -16 3 -22 6 -6 12 -6 17 2 4 6 3 16 -3 22 -6
6 -12 6 -17 -2z"/>
<path d="M11980 3175 c0 -9 5 -15 11 -13 6 2 11 8 11 13 0 5 -5 11 -11 13 -6
2 -11 -4 -11 -13z"/>
<path d="M5176 3173 c-11 -11 -6 -23 9 -23 8 0 15 4 15 9 0 13 -16 22 -24 14z"/>
<path d="M5236 3173 c-11 -11 -6 -23 9 -23 8 0 15 4 15 9 0 13 -16 22 -24 14z"/>
<path d="M3870 3141 c0 -11 -4 -23 -10 -26 -15 -9 -12 -25 5 -25 8 0 15 9 15
19 0 11 5 23 10 26 12 7 4 25 -11 25 -5 0 -9 -9 -9 -19z"/>
<path d="M10460 3144 c0 -9 5 -14 12 -12 18 6 21 28 4 28 -9 0 -16 -7 -16 -16z"/>
<path d="M11170 3136 c0 -9 7 -16 16 -16 17 0 14 22 -4 28 -7 2 -12 -3 -12
-12z"/>
<path d="M3930 3085 c0 -8 5 -15 10 -15 6 0 10 7 10 15 0 8 -4 15 -10 15 -5 0
-10 -7 -10 -15z"/>
<path d="M10326 3092 c-8 -13 11 -35 23 -28 16 10 14 36 -3 36 -8 0 -17 -4
-20 -8z"/>
<path d="M3610 3075 c0 -9 5 -15 11 -13 6 2 11 8 11 13 0 5 -5 11 -11 13 -6 2
-11 -4 -11 -13z"/>
<path d="M9317 3084 c-8 -8 1 -24 14 -24 5 0 9 7 9 15 0 15 -12 20 -23 9z"/>
<path d="M7945 3070 c-4 -6 -3 -16 3 -22 6 -6 12 -6 17 2 4 6 3 16 -3 22 -6 6
-12 6 -17 -2z"/>
<path d="M3662 3059 c2 -6 8 -10 13 -10 5 0 11 4 13 10 2 6 -4 11 -13 11 -9 0
-15 -5 -13 -11z"/>
<path d="M3840 3045 c0 -9 5 -15 11 -13 6 2 11 8 11 13 0 5 -5 11 -11 13 -6 2
-11 -4 -11 -13z"/>
<path d="M10287 3054 c-8 -8 1 -24 14 -24 5 0 9 7 9 15 0 15 -12 20 -23 9z"/>
<path d="M9317 3024 c-8 -8 1 -24 14 -24 5 0 9 7 9 15 0 15 -12 20 -23 9z"/>
<path d="M10372 3019 c2 -6 8 -10 13 -10 5 0 11 4 13 10 2 6 -4 11 -13 11 -9
0 -15 -5 -13 -11z"/>
<path d="M3886 3013 c-11 -11 -6 -23 9 -23 8 0 15 4 15 9 0 13 -16 22 -24 14z"/>
<path d="M10231 2971 c-24 -47 -27 -71 -7 -71 18 0 59 64 54 87 -6 31 -27 24
-47 -16z m32 2 c-10 -26 -35 -64 -40 -60 -6 7 29 77 39 77 4 0 4 -8 1 -17z"/>
<path d="M10506 2983 c-11 -11 -6 -23 9 -23 8 0 15 4 15 9 0 13 -16 22 -24 14z"/>
<path d="M9707 2964 c-8 -8 1 -24 14 -24 5 0 9 7 9 15 0 15 -12 20 -23 9z"/>
<path d="M10389 2936 c10 -11 9 -21 -3 -45 -9 -16 -16 -37 -16 -46 0 -17 25
-21 35 -5 10 16 19 12 37 -20 10 -17 25 -30 37 -30 26 0 61 46 61 81 0 42 -22
58 -74 52 -36 -4 -47 -2 -52 11 -3 9 -13 16 -21 16 -12 0 -13 -3 -4 -14z m131
-41 c12 -31 -1 -70 -28 -84 -21 -11 -42 2 -42 26 0 20 -25 26 -49 13 -12 -6
-21 -7 -21 -3 0 16 31 53 40 48 5 -3 24 1 42 9 45 20 47 19 58 -9z"/>
<path d="M8880 2920 c-47 -47 -8 -151 45 -116 11 7 21 23 23 34 3 19 -32 102
-43 102 -3 0 -14 -9 -25 -20z m47 -48 c13 -31 13 -37 -1 -51 -13 -12 -20 -13
-34 -5 -21 14 -26 42 -12 78 12 33 27 26 47 -22z"/>
<path d="M11490 2915 c0 -9 5 -15 11 -13 6 2 11 8 11 13 0 5 -5 11 -11 13 -6
2 -11 -4 -11 -13z"/>
<path d="M12097 2924 c-8 -8 1 -24 14 -24 5 0 9 7 9 15 0 15 -12 20 -23 9z"/>
<path d="M8620 2884 c0 -17 22 -14 28 4 2 7 -3 12 -12 12 -9 0 -16 -7 -16 -16z"/>
<path d="M11387 2894 c-8 -8 1 -24 14 -24 5 0 9 7 9 15 0 15 -12 20 -23 9z"/>
<path d="M11446 2883 c-11 -11 -6 -23 9 -23 8 0 15 4 15 9 0 13 -16 22 -24 14z"/>
<path d="M8622 2829 c2 -6 8 -10 13 -10 5 0 11 4 13 10 2 6 -4 11 -13 11 -9 0
-15 -5 -13 -11z"/>
<path d="M10805 2830 c-3 -6 -3 -20 0 -31 6 -19 9 -20 22 -6 9 9 13 23 10 31
-7 18 -23 21 -32 6z m20 -9 c3 -5 1 -12 -5 -16 -5 -3 -10 1 -10 9 0 18 6 21
15 7z"/>
<path d="M9360 2815 c0 -9 5 -15 11 -13 6 2 11 8 11 13 0 5 -5 11 -11 13 -6 2
-11 -4 -11 -13z"/>
<path d="M10135 2779 c-28 -28 -75 -68 -106 -89 -31 -22 -59 -46 -62 -55 -4
-8 -15 -15 -25 -15 -50 0 -56 -70 -12 -146 38 -68 72 -94 122 -94 22 0 47 -4
56 -9 12 -6 24 -4 37 6 19 14 19 14 -5 11 -14 -1 -51 1 -82 5 -64 9 -95 36
-129 112 -28 61 -25 82 16 99 19 8 35 20 35 25 0 6 17 21 38 35 20 13 69 53
108 89 l71 66 31 -32 31 -32 -30 -33 c-34 -37 -36 -48 -11 -56 22 -7 44 -73
27 -80 -24 -9 -75 -118 -74 -155 l2 -36 6 42 c4 23 15 51 24 61 9 10 17 24 17
30 0 6 12 25 26 42 20 23 24 34 15 43 -6 6 -11 20 -11 30 0 11 -8 26 -17 33
-17 12 -16 15 15 47 l33 34 -44 37 c-24 20 -46 36 -48 36 -3 0 -27 -23 -54
-51z"/>
<path d="M11040 2815 c0 -9 5 -15 11 -13 6 2 11 8 11 13 0 5 -5 11 -11 13 -6
2 -11 -4 -11 -13z"/>
<path d="M11287 2824 c-8 -8 1 -24 14 -24 5 0 9 7 9 15 0 15 -12 20 -23 9z"/>
<path d="M10317 2794 c-8 -8 1 -24 14 -24 5 0 9 7 9 15 0 15 -12 20 -23 9z"/>
<path d="M11227 2794 c-8 -8 1 -24 14 -24 5 0 9 7 9 15 0 15 -12 20 -23 9z"/>
<path d="M8636 2783 c-11 -11 -6 -23 9 -23 8 0 15 4 15 9 0 13 -16 22 -24 14z"/>
<path d="M9430 2765 c0 -3 25 -42 55 -86 30 -44 55 -87 55 -94 0 -8 13 -29 29
-47 15 -18 36 -50 46 -71 9 -20 46 -68 80 -105 73 -78 81 -77 109 18 20 65 13
90 -24 90 -10 0 -31 16 -47 35 -15 20 -53 64 -83 98 -31 34 -68 78 -83 99 -16
20 -46 43 -68 52 -40 16 -69 21 -69 11z m77 -29 c26 -14 183 -187 183 -202 0
-16 77 -84 94 -84 8 0 17 -4 20 -8 6 -11 -34 -122 -45 -122 -12 0 -129 132
-129 145 0 7 -18 37 -40 66 -22 30 -40 59 -40 65 0 7 -25 46 -55 89 -56 78
-55 86 12 51z"/>
<path d="M11820 2754 c0 -9 5 -14 12 -12 18 6 21 28 4 28 -9 0 -16 -7 -16 -16z"/>
<path d="M8620 2716 c0 -9 7 -16 16 -16 17 0 14 22 -4 28 -7 2 -12 -3 -12 -12z"/>
<path d="M9862 2698 c6 -18 28 -21 28 -4 0 9 -7 16 -16 16 -9 0 -14 -5 -12
-12z"/>
<path d="M6315 2691 c-7 -12 12 -24 25 -16 11 7 4 25 -10 25 -5 0 -11 -4 -15
-9z"/>
<path d="M9430 2655 c0 -9 5 -15 11 -13 6 2 11 8 11 13 0 5 -5 11 -11 13 -6 2
-11 -4 -11 -13z"/>
<path d="M10590 2655 c0 -9 5 -15 11 -13 6 2 11 8 11 13 0 5 -5 11 -11 13 -6
2 -11 -4 -11 -13z"/>
<path d="M6290 2625 c0 -9 5 -15 11 -13 6 2 11 8 11 13 0 5 -5 11 -11 13 -6 2
-11 -4 -11 -13z"/>
<path d="M2812 2599 c2 -6 8 -10 13 -10 5 0 11 4 13 10 2 6 -4 11 -13 11 -9 0
-15 -5 -13 -11z"/>
<path d="M10567 2603 c-11 -10 -8 -87 4 -122 12 -34 35 -44 26 -10 -3 11 1 40
10 65 8 24 12 51 9 59 -5 15 -37 20 -49 8z m36 -10 c7 -13 -13 -73 -23 -73
-11 0 -14 63 -3 73 9 9 21 9 26 0z"/>
<path d="M9490 2585 c0 -9 5 -15 11 -13 6 2 11 8 11 13 0 5 -5 11 -11 13 -6 2
-11 -4 -11 -13z"/>
<path d="M10330 2587 c-28 -10 -38 -21 -52 -57 -29 -77 -19 -214 20 -253 l21
-20 7 27 c3 15 4 47 0 72 -7 55 11 60 20 4 4 -21 14 -46 24 -55 15 -14 19 -14
30 -1 6 9 12 31 13 51 1 27 -7 43 -31 68 -18 18 -32 36 -32 39 0 4 17 8 38 10
56 5 50 32 -10 38 -26 3 -50 9 -54 12 -15 15 11 28 55 28 50 0 111 16 111 30
0 22 -102 27 -160 7z m127 -14 c-4 -3 -29 -5 -56 -4 -56 2 -99 -24 -88 -52 5
-13 19 -17 57 -17 27 0 50 -4 50 -10 0 -5 -18 -10 -40 -10 -49 0 -51 -13 -10
-66 22 -27 30 -47 28 -68 -4 -45 -19 -38 -38 19 -10 31 -23 51 -34 53 -16 3
-17 -4 -14 -67 3 -68 -3 -89 -16 -55 -3 9 -6 27 -6 40 0 14 -5 35 -11 46 -16
30 7 154 32 179 15 15 34 19 86 19 36 0 63 -3 60 -7z"/>
<path d="M12127 2594 c-8 -8 1 -24 14 -24 5 0 9 7 9 15 0 15 -12 20 -23 9z"/>
<path d="M6242 2569 c2 -6 8 -10 13 -10 5 0 11 4 13 10 2 6 -4 11 -13 11 -9 0
-15 -5 -13 -11z"/>
<path d="M10650 2535 c0 -9 5 -15 11 -13 6 2 11 8 11 13 0 5 -5 11 -11 13 -6
2 -11 -4 -11 -13z"/>
<path d="M2754 2525 c-3 -8 -3 -19 1 -25 10 -16 35 7 28 26 -7 18 -22 18 -29
-1z"/>
<path d="M2810 2525 c0 -8 7 -15 15 -15 8 0 15 7 15 15 0 8 -7 15 -15 15 -8 0
-15 -7 -15 -15z"/>
<path d="M11935 2531 c-7 -12 12 -24 25 -16 11 7 4 25 -10 25 -5 0 -11 -4 -15
-9z"/>
<path d="M2876 2523 c-11 -11 -6 -23 9 -23 8 0 15 4 15 9 0 13 -16 22 -24 14z"/>
<path d="M10694 2519 c-7 -13 22 -46 48 -55 18 -5 18 -7 3 -24 -24 -27 -4 -63
30 -54 30 7 140 -49 162 -83 13 -19 14 -29 4 -49 -17 -39 -14 -54 14 -54 13 0
47 -9 75 -20 54 -21 100 -26 100 -11 0 19 32 41 60 41 22 0 35 -9 57 -42 38
-56 97 -78 149 -53 35 17 39 37 5 28 -30 -8 -68 24 -96 80 -22 44 -25 47 -25
24 0 -19 15 -43 46 -77 41 -44 44 -50 25 -50 -33 0 -61 18 -107 67 -38 41 -43
43 -70 33 -16 -6 -36 -20 -45 -31 -17 -23 -27 -22 -136 18 -51 19 -52 20 -37
41 26 37 -7 80 -100 128 -29 15 -59 24 -73 21 -32 -6 -41 17 -18 43 17 18 16
20 -19 36 -61 29 -45 43 27 23 29 -8 37 -15 37 -33 0 -25 28 -56 50 -56 8 0
26 11 40 25 l27 25 67 -25 c81 -30 157 -68 211 -105 59 -39 69 -45 61 -32 -14
23 -146 103 -217 131 -117 47 -126 48 -159 16 -35 -33 -56 -28 -68 17 -5 20
-18 37 -33 44 -38 18 -88 24 -95 13z"/>
<path d="M12157 2504 c-8 -8 1 -24 14 -24 5 0 9 7 9 15 0 15 -12 20 -23 9z"/>
<path d="M9550 2485 c0 -8 5 -15 10 -15 6 0 10 7 10 15 0 8 -4 15 -10 15 -5 0
-10 -7 -10 -15z"/>
<path d="M10645 2490 c-8 -13 6 -41 19 -37 17 6 19 34 2 40 -9 4 -18 2 -21 -3z"/>
<path d="M10856 2493 c-11 -11 -6 -23 9 -23 8 0 15 4 15 9 0 13 -16 22 -24 14z"/>
<path d="M11086 2493 c-11 -11 -6 -23 9 -23 8 0 15 4 15 9 0 13 -16 22 -24 14z"/>
<path d="M11360 2485 c0 -9 5 -15 11 -13 6 2 11 8 11 13 0 5 -5 11 -11 13 -6
2 -11 -4 -11 -13z"/>
<path d="M6217 2474 c-8 -8 1 -24 14 -24 5 0 9 7 9 15 0 15 -12 20 -23 9z"/>
<path d="M9880 2464 c0 -9 5 -14 12 -12 18 6 21 28 4 28 -9 0 -16 -7 -16 -16z"/>
<path d="M11242 2469 c2 -6 8 -10 13 -10 5 0 11 4 13 10 2 6 -4 11 -13 11 -9
0 -15 -5 -13 -11z"/>
<path d="M10460 2456 c0 -9 7 -16 16 -16 9 0 14 5 12 12 -6 18 -28 21 -28 4z"/>
<path d="M10515 2461 c-7 -12 12 -24 25 -16 11 7 4 25 -10 25 -5 0 -11 -4 -15
-9z"/>
<path d="M12200 2455 c0 -9 5 -15 11 -13 6 2 11 8 11 13 0 5 -5 11 -11 13 -6
2 -11 -4 -11 -13z"/>
<path d="M12252 2438 c6 -18 28 -21 28 -4 0 9 -7 16 -16 16 -9 0 -14 -5 -12
-12z"/>
<path d="M9577 2433 c-7 -12 11 -53 23 -53 17 0 23 29 10 45 -14 16 -26 19
-33 8z m28 -23 c3 -5 1 -10 -4 -10 -6 0 -11 5 -11 10 0 6 2 10 4 10 3 0 8 -4
11 -10z"/>
<path d="M9850 2426 c0 -9 7 -16 16 -16 17 0 14 22 -4 28 -7 2 -12 -3 -12 -12z"/>
<path d="M11450 2424 c1 -23 23 -54 39 -54 20 0 8 41 -16 58 -21 13 -23 13
-23 -4z m38 -40 c-4 -3 -12 5 -18 18 -12 22 -12 22 6 6 10 -10 15 -20 12 -24z"/>
<path d="M10595 2420 c-11 -18 10 -32 41 -28 40 4 38 32 -3 36 -17 2 -34 -2
-38 -8z m48 -17 c-7 -2 -19 -2 -25 0 -7 3 -2 5 12 5 14 0 19 -2 13 -5z"/>
<path d="M10515 2401 c-7 -12 12 -24 25 -16 11 7 4 25 -10 25 -5 0 -11 -4 -15
-9z"/>
<path d="M8010 2365 c0 -8 7 -15 15 -15 8 0 15 7 15 15 0 8 -7 15 -15 15 -8 0
-15 -7 -15 -15z"/>
<path d="M11382 2353 c-44 -26 -53 -55 -19 -61 20 -4 77 49 77 72 0 21 -7 20
-58 -11z m20 -24 c-32 -28 -57 -38 -50 -20 4 13 72 59 78 54 3 -3 -10 -18 -28
-34z"/>
<path d="M7477 2344 c-8 -8 1 -24 14 -24 5 0 9 7 9 15 0 15 -12 20 -23 9z"/>
<path d="M10750 2326 c0 -9 7 -16 16 -16 9 0 14 5 12 12 -6 18 -28 21 -28 4z"/>
<path d="M11287 2333 c-12 -11 -8 -23 8 -23 8 0 15 7 15 15 0 16 -12 20 -23 8z"/>
<path d="M10442 2308 c6 -18 28 -21 28 -4 0 9 -7 16 -16 16 -9 0 -14 -5 -12
-12z"/>
<path d="M10810 2305 c0 -8 5 -15 10 -15 6 0 10 7 10 15 0 8 -4 15 -10 15 -5
0 -10 -7 -10 -15z"/>
<path d="M11532 2309 c2 -6 8 -10 13 -10 5 0 11 4 13 10 2 6 -4 11 -13 11 -9
0 -15 -5 -13 -11z"/>
<path d="M7940 2295 c0 -9 5 -15 11 -13 6 2 11 8 11 13 0 5 -5 11 -11 13 -6 2
-11 -4 -11 -13z"/>
<path d="M9784 2285 c-14 -35 48 -64 181 -86 39 -6 78 -16 89 -21 13 -7 23 -6
34 5 14 14 12 19 -16 45 -31 29 -64 40 -178 61 -81 15 -104 14 -110 -4z m66
-5 c19 -5 66 -14 103 -19 48 -7 79 -18 103 -36 20 -15 33 -29 31 -32 -3 -2
-60 7 -127 21 -121 25 -176 48 -165 66 8 12 11 12 55 0z"/>
<path d="M7462 2279 c2 -6 8 -10 13 -10 5 0 11 4 13 10 2 6 -4 11 -13 11 -9 0
-15 -5 -13 -11z"/>
<path d="M11592 2279 c2 -6 8 -10 13 -10 5 0 11 4 13 10 2 6 -4 11 -13 11 -9
0 -15 -5 -13 -11z"/>
<path d="M10072 2263 c2 -10 10 -18 18 -18 8 0 16 8 18 18 2 12 -3 17 -18 17
-15 0 -20 -5 -18 -17z"/>
<path d="M10140 2266 c0 -9 7 -16 16 -16 17 0 14 22 -4 28 -7 2 -12 -3 -12
-12z"/>
<path d="M12270 2265 c0 -9 5 -15 11 -13 6 2 11 8 11 13 0 5 -5 11 -11 13 -6
2 -11 -4 -11 -13z"/>
<path d="M11657 2264 c-14 -14 -7 -35 11 -32 9 2 17 10 17 17 0 16 -18 25 -28
15z"/>
<path d="M10362 2249 c2 -6 8 -10 13 -10 5 0 11 4 13 10 2 6 -4 11 -13 11 -9
0 -15 -5 -13 -11z"/>
<path d="M10560 2234 c0 -9 5 -14 12 -12 18 6 21 28 4 28 -9 0 -16 -7 -16 -16z"/>
<path d="M10677 2233 c-3 -5 -2 -15 3 -22 10 -17 43 -6 38 12 -6 15 -34 22
-41 10z"/>
<path d="M11606 2233 c-11 -11 -6 -23 9 -23 8 0 15 4 15 9 0 13 -16 22 -24 14z"/>
<path d="M12346 2233 c-11 -11 -6 -23 9 -23 8 0 15 4 15 9 0 13 -16 22 -24 14z"/>
<path d="M7477 2214 c-8 -8 1 -24 14 -24 5 0 9 7 9 15 0 15 -12 20 -23 9z"/>
<path d="M10620 2205 c0 -9 5 -15 11 -13 6 2 11 8 11 13 0 5 -5 11 -11 13 -6
2 -11 -4 -11 -13z"/>
<path d="M11720 2205 c0 -18 24 -30 39 -21 16 10 1 36 -20 36 -10 0 -19 -7
-19 -15z m30 -5 c0 -5 -2 -10 -4 -10 -3 0 -8 5 -11 10 -3 6 -1 10 4 10 6 0 11
-4 11 -10z"/>
<path d="M10127 2204 c-8 -8 1 -24 14 -24 5 0 9 7 9 15 0 15 -12 20 -23 9z"/>
<path d="M10417 2204 c-8 -8 1 -24 14 -24 5 0 9 7 9 15 0 15 -12 20 -23 9z"/>
<path d="M10472 2175 c-42 -36 -54 -65 -28 -65 22 0 111 64 111 80 0 29 -40
21 -83 -15z m68 16 c0 -10 -38 -39 -77 -60 -39 -20 -25 6 20 38 45 32 57 37
57 22z"/>
<path d="M10307 2193 c-15 -14 -6 -33 16 -33 30 0 40 10 26 27 -12 14 -32 17
-42 6z m30 -19 c-3 -3 -12 -4 -19 -1 -8 3 -5 6 6 6 11 1 17 -2 13 -5z"/>
<path d="M10182 2178 c5 -15 57 -18 61 -3 1 6 -13 11 -32 13 -24 3 -32 0 -29
-10z"/>
<path d="M11690 2166 c0 -9 7 -16 16 -16 9 0 14 5 12 12 -6 18 -28 21 -28 4z"/>
<path d="M10270 2136 c0 -9 7 -16 16 -16 9 0 14 5 12 12 -6 18 -28 21 -28 4z"/>
<path d="M11765 2130 c-4 -6 -3 -16 3 -22 6 -6 12 -6 17 2 4 6 3 16 -3 22 -6
6 -12 6 -17 -2z"/>
<path d="M10362 2119 c2 -6 8 -10 13 -10 5 0 11 4 13 10 2 6 -4 11 -13 11 -9
0 -15 -5 -13 -11z"/>
<path d="M11446 2103 c-11 -11 -6 -23 9 -23 8 0 15 4 15 9 0 13 -16 22 -24 14z"/>
<path d="M10715 2063 l-18 -27 -9 24 c-6 17 -12 20 -20 12 -8 -8 -8 -15 0 -24
7 -10 5 -24 -10 -53 -11 -22 -20 -50 -19 -62 0 -13 -5 -23 -13 -23 -26 0 -74
22 -80 36 -8 22 -54 18 -61 -6 -3 -11 -19 -27 -36 -37 -22 -13 -29 -25 -29
-47 0 -28 0 -29 -20 -11 -25 23 -30 18 -37 -35 -4 -31 -14 -48 -41 -70 -19
-16 -46 -31 -60 -35 -34 -8 -171 -84 -194 -107 -24 -24 -23 -76 2 -113 25 -38
26 -53 2 -32 -40 37 -48 3 -15 -59 33 -62 62 -169 70 -257 5 -62 9 -71 38 -93
40 -30 56 -30 106 1 22 14 66 31 97 37 33 6 75 24 99 41 23 16 66 35 95 40
130 26 213 0 261 -78 15 -25 32 -43 37 -40 6 4 22 25 36 47 30 48 40 45 19 -5
-16 -39 -8 -53 25 -42 14 5 18 2 15 -8 -6 -14 49 -106 85 -143 28 -29 68 -35
103 -17 28 14 31 13 58 -13 l29 -28 38 37 c21 21 41 35 44 31 17 -16 48 10 59
49 6 23 29 88 50 144 29 76 43 135 55 225 19 152 15 183 -31 202 -19 8 -44 31
-58 53 -13 21 -32 44 -41 52 -9 7 -16 22 -16 32 0 10 -12 25 -28 33 -38 20
-70 82 -81 159 -6 44 -18 77 -34 99 -14 18 -31 52 -38 76 -14 47 -34 71 -49
56 -6 -6 -19 -48 -30 -94 -32 -133 -38 -154 -53 -174 -13 -18 -17 -17 -75 23
-34 23 -66 50 -72 61 -11 21 -5 59 16 102 16 31 9 58 -15 58 -9 0 -21 4 -26 9
-6 5 -33 11 -61 15 -48 6 -53 5 -69 -21z m123 -5 c47 -12 49 -19 26 -73 -28
-69 -18 -93 65 -152 40 -29 77 -53 81 -53 13 0 50 97 66 177 26 125 37 135 64
58 7 -22 22 -52 32 -66 11 -15 26 -59 34 -99 15 -80 53 -155 84 -165 11 -3 20
-12 20 -18 0 -7 10 -23 21 -37 11 -14 30 -41 43 -60 13 -20 40 -44 60 -55 36
-19 36 -20 36 -85 0 -82 -25 -228 -52 -300 -11 -30 -32 -89 -47 -130 -23 -63
-31 -76 -52 -78 -13 -2 -39 -18 -56 -35 l-33 -31 -25 24 c-23 22 -28 23 -60
11 -47 -17 -92 -6 -112 27 -9 15 -27 43 -40 63 -12 19 -23 45 -23 58 0 20 -4
23 -26 18 -23 -4 -25 -2 -19 17 23 71 -3 99 -34 37 -27 -53 -37 -57 -55 -24
-32 62 -104 103 -178 103 -65 -1 -156 -26 -197 -54 -20 -14 -60 -30 -88 -35
-28 -6 -73 -22 -100 -37 -82 -46 -133 -19 -133 70 0 67 -34 199 -66 253 -30
51 -32 73 -4 48 19 -17 20 -17 27 0 4 11 -2 33 -15 56 -27 47 -28 69 -3 96 23
24 155 97 191 106 15 4 45 24 68 45 33 31 42 46 42 72 0 31 1 32 18 17 22 -20
32 -13 32 19 0 14 12 32 30 46 17 12 30 27 30 34 0 24 22 26 45 4 17 -16 41
-24 76 -28 52 -5 52 -5 45 21 -7 29 17 81 52 110 12 10 22 25 22 32 0 15 26
14 108 -7z"/>
<path d="M11707 2084 c-8 -8 1 -24 14 -24 5 0 9 7 9 15 0 15 -12 20 -23 9z"/>
<path d="M7562 2049 c2 -6 8 -10 13 -10 5 0 11 4 13 10 2 6 -4 11 -13 11 -9 0
-15 -5 -13 -11z"/>
<path d="M7607 2024 c-8 -8 1 -24 14 -24 5 0 9 7 9 15 0 15 -12 20 -23 9z"/>
<path d="M7770 1996 c-10 -33 -53 -77 -115 -120 -36 -25 -58 -79 -50 -125 4
-26 0 -53 -15 -91 -18 -47 -20 -60 -10 -100 6 -26 20 -61 31 -79 17 -29 23
-32 52 -26 65 13 73 31 139 305 35 144 38 194 13 253 -12 28 -33 20 -45 -17z
m45 -39 c5 -42 -1 -83 -29 -202 -63 -262 -74 -285 -134 -285 -45 0 -78 130
-48 188 10 19 16 56 16 98 0 72 5 80 108 161 23 19 45 48 52 68 15 46 27 37
35 -28z"/>
<path d="M7650 1975 c0 -9 5 -15 11 -13 6 2 11 8 11 13 0 5 -5 11 -11 13 -6 2
-11 -4 -11 -13z"/>
<path d="M10897 1984 c-8 -8 1 -24 14 -24 5 0 9 7 9 15 0 15 -12 20 -23 9z"/>
<path d="M12695 1970 c-8 -13 -1 -23 18 -26 7 -1 20 -5 30 -9 12 -5 17 -2 17
9 0 9 -8 16 -18 16 -10 0 -23 5 -29 11 -8 8 -13 8 -18 -1z"/>
<path d="M11926 1913 c-11 -11 -6 -23 9 -23 8 0 15 4 15 9 0 13 -16 22 -24 14z"/>
<path d="M7972 1861 c2 -7 7 -12 11 -12 12 1 9 15 -3 20 -7 2 -11 -2 -8 -8z"/>
<path d="M11935 1851 c-7 -12 12 -24 25 -16 11 7 4 25 -10 25 -5 0 -11 -4 -15
-9z"/>
<path d="M12370 1845 c0 -8 7 -15 15 -15 8 0 15 7 15 15 0 8 -7 15 -15 15 -8
0 -15 -7 -15 -15z"/>
<path d="M11980 1815 c0 -9 5 -15 11 -13 6 2 11 8 11 13 0 5 -5 11 -11 13 -6
2 -11 -4 -11 -13z"/>
<path d="M746 1813 c-11 -11 -6 -23 9 -23 8 0 15 4 15 9 0 13 -16 22 -24 14z"/>
<path d="M12330 1805 c0 -9 5 -15 11 -13 6 2 11 8 11 13 0 5 -5 11 -11 13 -6
2 -11 -4 -11 -13z"/>
<path d="M786 1783 c-11 -11 -6 -23 9 -23 8 0 15 4 15 9 0 13 -16 22 -24 14z"/>
<path d="M12595 1710 c-4 -6 -3 -16 3 -22 6 -6 12 -6 17 2 4 6 3 16 -3 22 -6
6 -12 6 -17 -2z"/>
<path d="M1196 1683 c-11 -11 -6 -23 9 -23 8 0 15 4 15 9 0 13 -16 22 -24 14z"/>
<path d="M8076 1683 c-11 -11 -6 -23 9 -23 8 0 15 4 15 9 0 13 -16 22 -24 14z"/>
<path d="M11867 1684 c-11 -11 5 -35 35 -50 40 -21 62 -3 33 25 -22 21 -58 34
-68 25z m58 -34 c8 -13 -1 -13 -26 0 -10 6 -19 15 -19 21 0 11 35 -5 45 -21z"/>
<path d="M8012 1659 c2 -6 8 -10 13 -10 5 0 11 4 13 10 2 6 -4 11 -13 11 -9 0
-15 -5 -13 -11z"/>
<path d="M12547 1664 c-8 -8 1 -24 14 -24 5 0 9 7 9 15 0 15 -12 20 -23 9z"/>
<path d="M1047 1653 c-12 -11 -8 -23 8 -23 8 0 15 7 15 15 0 16 -12 20 -23 8z"/>
<path d="M1277 1594 c-8 -8 1 -24 14 -24 5 0 9 7 9 15 0 15 -12 20 -23 9z"/>
<path d="M1480 1525 c0 -9 5 -15 11 -13 6 2 11 8 11 13 0 5 -5 11 -11 13 -6 2
-11 -4 -11 -13z"/>
<path d="M1610 1494 c0 -9 5 -14 12 -12 18 6 21 28 4 28 -9 0 -16 -7 -16 -16z"/>
<path d="M2322 1439 c2 -6 8 -10 13 -10 5 0 11 4 13 10 2 6 -4 11 -13 11 -9 0
-15 -5 -13 -11z"/>
<path d="M2146 1423 c-11 -11 -6 -23 9 -23 8 0 15 4 15 9 0 13 -16 22 -24 14z"/>
<path d="M3215 1101 c-7 -12 12 -24 25 -16 11 7 4 25 -10 25 -5 0 -11 -4 -15
-9z"/>
<path d="M12150 1050 c0 -6 14 -34 30 -63 33 -59 37 -89 15 -127 -19 -33 -19
-35 10 -48 14 -7 25 -20 25 -31 0 -22 25 -45 40 -36 6 3 17 22 25 41 8 20 24
43 34 52 11 9 22 31 23 47 3 25 -1 31 -21 33 -13 2 -26 12 -29 24 -3 14 -10
18 -27 14 -16 -4 -25 0 -32 17 -26 55 -93 111 -93 77z m82 -89 c12 -21 22 -29
33 -25 10 4 22 -1 31 -14 8 -12 21 -18 33 -15 15 4 18 0 14 -21 -3 -15 -13
-32 -23 -39 -10 -7 -25 -29 -33 -50 -16 -37 -37 -50 -37 -22 0 9 -11 27 -25
39 -25 24 -25 24 -9 60 17 35 17 36 -14 97 -18 34 -32 67 -32 72 0 12 37 -36
62 -82z"/>
<path d="M10880 1005 c0 -9 5 -15 11 -13 6 2 11 8 11 13 0 5 -5 11 -11 13 -6
2 -11 -4 -11 -13z"/>
<path d="M11272 819 c2 -6 8 -10 13 -10 5 0 11 4 13 10 2 6 -4 11 -13 11 -9 0
-15 -5 -13 -11z"/>
<path d="M11140 806 c0 -9 7 -16 16 -16 9 0 14 5 12 12 -6 18 -28 21 -28 4z"/>
<path d="M11170 762 c0 -21 33 -102 46 -112 44 -38 130 63 89 104 -17 17 -135
24 -135 8z m119 -11 c12 -8 13 -16 2 -50 -10 -36 -15 -41 -42 -41 -25 0 -33 6
-45 35 -23 56 -19 65 29 65 23 0 48 -4 56 -9z"/>
<path d="M12126 739 c-14 -17 -26 -35 -26 -39 0 -5 -18 -26 -40 -46 -55 -51
-114 -139 -106 -159 3 -9 10 -14 15 -10 6 3 26 -1 46 -10 26 -10 42 -12 55 -5
27 14 50 51 50 78 0 13 14 41 30 62 17 21 30 45 30 54 0 9 4 16 10 16 5 0 14
9 20 21 9 16 8 26 -5 45 -21 32 -48 30 -79 -7z m58 15 c20 -8 21 -48 1 -64 -8
-7 -15 -17 -15 -22 0 -5 -16 -30 -35 -55 -20 -26 -35 -57 -35 -73 0 -15 -9
-35 -20 -45 -18 -16 -25 -17 -54 -7 -18 7 -40 12 -49 12 -16 0 -16 3 -3 29 9
16 44 60 78 99 35 39 73 85 86 101 26 34 24 33 46 25z"/>
<path d="M3374 706 c-9 -24 12 -44 28 -28 10 10 8 16 -5 29 -15 15 -17 15 -23
-1z"/>
<path d="M11996 453 c-11 -11 -6 -23 9 -23 8 0 15 4 15 9 0 13 -16 22 -24 14z"/>
<path d="M3350 425 c0 -9 5 -15 11 -13 6 2 11 8 11 13 0 5 -5 11 -11 13 -6 2
-11 -4 -11 -13z"/>
<path d="M8473 385 c-3 -10 2 -25 13 -36 18 -17 21 -18 42 -3 12 8 22 20 22
26 0 6 -8 4 -18 -5 -23 -21 -38 -21 -46 -1 -4 12 -1 14 14 9 26 -8 26 1 0 15
-16 9 -22 8 -27 -5z"/>
<path d="M3350 355 c0 -8 5 -15 10 -15 6 0 10 7 10 15 0 8 -4 15 -10 15 -5 0
-10 -7 -10 -15z"/>
<path d="M11910 315 c0 -9 5 -15 11 -13 6 2 11 8 11 13 0 5 -5 11 -11 13 -6 2
-11 -4 -11 -13z"/>
<path d="M3350 285 c0 -8 5 -15 10 -15 6 0 10 7 10 15 0 8 -4 15 -10 15 -5 0
-10 -7 -10 -15z"/>
<path d="M3940 258 c0 -7 -3 -23 -6 -35 -4 -13 -2 -23 2 -23 12 0 35 51 28 61
-8 13 -24 11 -24 -3z"/>
<path d="M3870 245 c-9 -10 -10 -19 -3 -26 14 -14 45 0 41 19 -4 22 -23 25
-38 7z m30 -9 c0 -3 -4 -8 -10 -11 -5 -3 -10 -1 -10 4 0 6 5 11 10 11 6 0 10
-2 10 -4z"/>
<path d="M3395 189 c-4 -6 2 -19 14 -30 12 -11 21 -24 21 -30 0 -6 5 -7 10 -4
7 4 7 13 0 26 -6 10 -8 19 -4 19 3 0 1 7 -6 15 -15 18 -26 19 -35 4z"/>
<path d="M8632 168 c6 -18 28 -21 28 -4 0 9 -7 16 -16 16 -9 0 -14 -5 -12 -12z"/>
<path d="M4684 119 c-15 -24 49 -58 72 -38 12 10 12 14 -3 24 -26 17 -62 25
-69 14z m56 -19 c12 -8 11 -10 -7 -10 -12 0 -25 5 -28 10 -8 13 15 13 35 0z"/>
<path d="M3722 79 c5 -14 21 -14 26 0 2 6 -4 11 -13 11 -9 0 -15 -5 -13 -11z"/>
<path d="M3554 29 c-10 -17 13 -36 27 -22 12 12 4 33 -11 33 -5 0 -12 -5 -16
-11z"/>
</g>
</svg>
