<svg id="Capa_1" enable-background="new 0 0 512.343 512.343" height="512" viewBox="0 0 512.343 512.343" width="512" xmlns="http://www.w3.org/2000/svg"><g><path d="m444.894 246.793-81.322-9.346c-3.018-16.731-10.04-32.37-20.562-45.786l1.817-3.084c2.865-4.861 2.109-10.807-1.881-14.796-3.989-3.99-9.936-4.746-14.795-1.88l-3.083 1.817c-13.416-10.523-29.056-17.545-45.786-20.562l-9.347-81.324c-.555-4.813-4.474-8.306-9.318-8.306-4.845 0-8.763 3.494-9.317 8.308l-9.347 81.322c-16.73 3.018-32.37 10.039-45.786 20.562l-3.083-1.817c-4.86-2.865-10.806-2.11-14.796 1.879-3.989 3.989-4.746 9.936-1.881 14.796l1.817 3.084c-10.523 13.416-17.545 29.056-20.562 45.786l-81.321 9.346c-4.813.553-8.308 4.471-8.308 9.317 0 4.845 3.493 8.765 8.308 9.319l81.322 9.346c3.018 16.73 10.04 32.37 20.562 45.786l-1.817 3.083c-2.864 4.861-2.108 10.807 1.88 14.796 2.376 2.376 5.446 3.605 8.568 3.605 2.119 0 4.262-.566 6.228-1.725l3.083-1.817c13.417 10.523 29.056 17.545 45.786 20.562l9.347 81.322c.554 4.812 4.472 8.306 9.316 8.307h.001c4.844 0 8.763-3.493 9.318-8.308l9.346-81.321c16.73-3.017 32.37-10.039 45.786-20.562l3.083 1.817c1.966 1.158 4.108 1.725 6.228 1.725 3.122 0 6.192-1.229 8.568-3.605 3.99-3.989 4.746-9.935 1.881-14.796l-1.817-3.083c10.522-13.417 17.544-29.057 20.562-45.786l81.323-9.347c4.813-.554 8.308-4.473 8.307-9.318-.002-4.845-3.495-8.763-8.308-9.316zm-133.878-64.793-13.932 8.21c-3.569 2.103-4.757 6.701-2.653 10.27s6.701 4.757 10.269 2.653l21.663-12.767-12.767 21.663c-2.104 3.569-.916 8.167 2.653 10.27 1.195.705 2.506 1.04 3.801 1.04 2.568 0 5.07-1.32 6.468-3.693l8.211-13.932c6.213 9.1 10.668 19.219 13.171 29.932l-59.928-6.888-6.888-59.929c10.713 2.503 20.831 6.958 29.932 13.171zm-124.51 23.713 8.21 13.932c1.398 2.373 3.9 3.693 6.468 3.693 1.294 0 2.605-.335 3.801-1.04 3.568-2.103 4.756-6.701 2.653-10.27l-12.766-21.662 21.662 12.766c3.569 2.104 8.167.915 10.27-2.653 2.103-3.569.915-8.167-2.653-10.27l-13.932-8.209c9.101-6.212 19.218-10.668 29.932-13.171l-.182 1.58c-.473 4.115 2.479 7.834 6.595 8.308 4.117.472 7.835-2.48 8.308-6.595l5.745-49.989 12.717 110.654-12.717 12.718-12.717-12.718 3.298-28.703c.473-4.115-2.48-7.834-6.595-8.308-4.126-.47-7.835 2.479-8.308 6.595l-3.032 26.386-59.929 6.888c2.504-10.713 6.959-20.831 13.172-29.932zm50.787 37.68 12.717 12.717-12.717 12.717-110.652-12.717zm-27.074 86.829 13.932-8.21c3.568-2.103 4.756-6.701 2.653-10.27-2.103-3.568-6.7-4.757-10.27-2.653l-21.662 12.766 12.766-21.662c2.103-3.569.915-8.167-2.653-10.27-3.567-2.102-8.166-.915-10.27 2.653l-8.21 13.932c-6.213-9.101-10.668-19.219-13.171-29.932l59.929 6.888 6.888 59.929c-10.713-2.503-20.831-6.958-29.932-13.171zm37.681-50.787 12.717-12.717 12.717 12.718-12.717 110.653zm86.828 27.074-8.211-13.932c-2.103-3.568-6.7-4.756-10.269-2.653s-4.757 6.701-2.653 10.27l12.767 21.663-21.663-12.767c-3.566-2.101-8.166-.915-10.269 2.653-2.104 3.569-.916 8.167 2.653 10.27l13.932 8.211c-9.101 6.212-19.219 10.668-29.932 13.17l6.888-59.929 59.928-6.888c-2.503 10.713-6.958 20.831-13.171 29.932zm-50.787-37.681-12.717-12.717 12.717-12.717 110.652 12.717z"/><path d="m292.833 94.026c32.091 6.341 61.351 21.99 84.615 45.254 23.264 23.265 38.913 52.523 45.254 84.614.706 3.573 3.84 6.048 7.35 6.048.481 0 .971-.047 1.462-.144 4.063-.803 6.707-4.748 5.903-8.812-6.919-35.018-23.988-66.939-49.362-92.313s-57.296-42.444-92.313-49.363c-4.07-.8-8.009 1.841-8.812 5.904-.804 4.064 1.84 8.009 5.903 8.812z"/><path d="m89.72 229.798c.491.097.98.144 1.462.144 3.508 0 6.644-2.475 7.35-6.047 6.341-32.091 21.99-61.35 45.254-84.614s52.523-38.913 84.614-45.254c4.063-.803 6.707-4.748 5.904-8.812-.803-4.063-4.75-6.705-8.812-5.904-35.018 6.919-66.938 23.989-92.313 49.363-25.374 25.374-42.443 57.295-49.363 92.312-.802 4.063 1.841 8.009 5.904 8.812z"/><path d="m155.806 383.833c-29.563-24.289-49.903-58.207-57.274-95.506-.803-4.064-4.746-6.702-8.812-5.904-4.063.803-6.707 4.749-5.904 8.812 8.042 40.697 30.227 77.699 62.467 104.188 1.396 1.147 3.082 1.705 4.757 1.705 2.167 0 4.316-.934 5.799-2.739 2.63-3.201 2.167-7.927-1.033-10.556z"/><path d="m228.4 418.196c-16.508-3.262-32.379-9.035-47.173-17.156-3.632-1.995-8.191-.666-10.184 2.965-1.994 3.631-.666 8.19 2.965 10.184 16.144 8.863 33.465 15.163 51.483 18.724.491.097.98.144 1.462.144 3.508 0 6.644-2.475 7.35-6.047.804-4.066-1.839-8.011-5.903-8.814z"/><path d="m431.514 282.424c-4.069-.8-8.009 1.841-8.812 5.904-6.341 32.09-21.99 61.35-45.254 84.614-23.265 23.264-52.524 38.913-84.615 45.254-4.063.803-6.707 4.748-5.903 8.812.706 3.573 3.84 6.047 7.35 6.047.481 0 .971-.047 1.462-.144 35.018-6.919 66.939-23.989 92.313-49.363 25.374-25.375 42.443-57.295 49.362-92.313.804-4.063-1.84-8.008-5.903-8.811z"/><path d="m299.89 111.096c-3.996-1.085-8.117 1.277-9.201 5.276-1.084 3.998 1.278 8.117 5.275 9.201 27.44 7.439 51.505 23.127 69.593 45.369 1.482 1.823 3.643 2.768 5.823 2.768 1.662 0 3.336-.55 4.728-1.681 3.213-2.613 3.7-7.337 1.086-10.551-20.083-24.694-46.814-42.116-77.304-50.382z"/><path d="m385.35 186.408c-3.714 1.834-5.238 6.332-3.404 10.045 3.854 7.807 6.953 15.986 9.21 24.31.905 3.341 3.931 5.54 7.233 5.54.649 0 1.311-.085 1.967-.263 3.998-1.084 6.36-5.203 5.276-9.201-2.51-9.258-5.954-18.351-10.237-27.026-1.834-3.714-6.33-5.239-10.045-3.405z"/><path d="m221.345 111.096c-51.314 13.911-91.832 54.429-105.742 105.743-1.083 3.998 1.279 8.117 5.276 9.201.657.178 1.317.263 1.967.263 3.303 0 6.329-2.199 7.234-5.54 12.522-46.193 48.996-82.667 95.189-95.19 3.998-1.084 6.36-5.203 5.276-9.201-1.083-3.997-5.204-6.361-9.2-5.276z"/><path d="m297.922 401.389c.649 0 1.311-.085 1.967-.263 51.314-13.911 91.833-54.429 105.743-105.743 1.084-3.998-1.278-8.117-5.276-9.201-3.99-1.083-8.117 1.277-9.2 5.276-12.523 46.193-48.998 82.668-95.19 95.19-3.998 1.084-6.36 5.203-5.276 9.201.904 3.341 3.929 5.54 7.232 5.54z"/><path d="m221.345 401.126c.657.178 1.317.263 1.967.263 3.303 0 6.329-2.199 7.234-5.54 1.083-3.998-1.279-8.117-5.276-9.201-46.193-12.522-82.667-48.997-95.189-95.19-1.084-3.998-5.201-6.36-9.201-5.276-3.998 1.084-6.36 5.203-5.276 9.201 13.909 51.314 54.427 91.832 105.741 105.743z"/><path d="m246.335 55.38c4.142 0 7.5-3.358 7.5-7.5v-16.246l13.583 19.669c2.074 2.997 5.708 4.311 9.051 3.267 3.387-1.058 5.662-4.293 5.662-8.123l-.377-39.02c-.04-4.117-3.39-7.427-7.498-7.427-.025 0-.05 0-.074 0-4.143.04-7.468 3.43-7.428 7.572l.161 16.606-14.409-20.864c-1.865-2.701-5.271-3.874-8.403-2.898-3.134.977-5.268 3.878-5.268 7.16v40.304c0 4.142 3.358 7.5 7.5 7.5z"/><path d="m500.519 270.697h-9.359v-7.086h6.479c4.143 0 7.5-3.358 7.5-7.5s-3.357-7.5-7.5-7.5h-6.479v-7.086h9.359c4.143 0 7.5-3.358 7.5-7.5s-3.357-7.5-7.5-7.5h-14.782c-5.281 0-9.577 4.296-9.577 9.578v40.018c0 5.281 4.296 9.578 9.577 9.578h14.782c4.143 0 7.5-3.358 7.5-7.5s-3.358-7.502-7.5-7.502z"/><path d="m267.18 477.935c-4.452-1.642-8.63-3.419-10.399-4.188-.016-.056-.02-.13-.005-.233.075-.522.618-.972 1.491-1.235 4.372-1.315 8.662 1.971 8.86 2.126 3.172 2.61 7.858 2.186 10.508-.965 2.665-3.171 2.256-7.902-.915-10.567-3.844-3.231-12.97-7.911-22.779-4.957-6.499 1.958-11.102 7.118-12.013 13.467-.863 6.016 1.748 11.805 6.814 15.107.331.216.679.405 1.04.566.236.105 5.869 2.613 12.207 4.951 2.703.997 3.823 2.239 3.729 2.765-.155.868-1.722 2.57-4.64 2.57-4.939 0-7.765-2.695-8.514-3.521-2.782-3.069-7.524-3.303-10.594-.521s-3.303 7.524-.521 10.594c4.866 5.37 12.02 8.449 19.629 8.449 9.7 0 17.861-6.28 19.406-14.933 1.801-10.088-6.042-16.796-13.304-19.475z"/><path d="m57.037 228.973c-4.061-.806-8.011 1.829-8.82 5.892l-2.786 13.998-4.564-14.816c-1.219-3.958-5.419-6.179-9.375-4.959-2.62.807-4.47 2.921-5.074 5.404l-4.451 14.378-2.783-14.071c-.803-4.063-4.747-6.705-8.813-5.902-4.063.804-6.706 4.75-5.902 8.813l7.868 39.773c.071.357.167.709.29 1.053 1.19 3.354 4.371 5.598 7.926 5.598h.056c3.578-.024 6.756-2.316 7.908-5.703.022-.065.043-.131.064-.197l5.114-16.523 5.091 16.525c.031.102.065.204.101.304 1.192 3.353 4.372 5.594 7.925 5.594h.058c3.577-.025 6.754-2.317 7.906-5.703.106-.311.191-.629.255-.951l7.899-39.688c.807-4.062-1.831-8.011-5.893-8.819z"/></g></svg>